# Generated for AthenaENV Model3D.load
mtllib car_cyan.mtl
v -0.85 0.025 -0.33
v -0.85 0.025 0.57
v 1.15 0.025 0.57
v 1.15 0.025 -0.33
v -0.91 0.14 -0.38
v 0.91 0.48 -0.38
v 0.91 0.14 -0.38
v -0.91 0.48 -0.38
v -0.91 0.14 0.38
v 0.91 0.14 0.38
v 0.91 0.48 0.38
v -0.91 0.48 0.38
v -0.55 0.48 -0.345
v 0.35 0.8 -0.345
v 0.35 0.48 -0.345
v -0.55 0.8 -0.345
v -0.55 0.48 0.345
v 0.35 0.48 0.345
v 0.35 0.8 0.345
v -0.55 0.8 0.345
v -0.62 0.78 -0.38
v 0.42 0.87 -0.38
v 0.42 0.78 -0.38
v -0.62 0.87 -0.38
v -0.62 0.78 0.38
v 0.42 0.78 0.38
v 0.42 0.87 0.38
v -0.62 0.87 0.38
v -0.6 0.495 -0.37
v -0.48 0.795 -0.37
v -0.48 0.495 -0.37
v -0.6 0.795 -0.37
v -0.6 0.495 -0.28
v -0.48 0.495 -0.28
v -0.48 0.795 -0.28
v -0.6 0.795 -0.28
v -0.6 0.495 0.28
v -0.48 0.795 0.28
v -0.48 0.495 0.28
v -0.6 0.795 0.28
v -0.6 0.495 0.37
v -0.48 0.495 0.37
v -0.48 0.795 0.37
v -0.6 0.795 0.37
v 0.28 0.495 -0.37
v 0.4 0.795 -0.37
v 0.4 0.495 -0.37
v 0.28 0.795 -0.37
v 0.28 0.495 -0.28
v 0.4 0.495 -0.28
v 0.4 0.795 -0.28
v 0.28 0.795 -0.28
v 0.28 0.495 0.28
v 0.4 0.795 0.28
v 0.4 0.495 0.28
v 0.28 0.795 0.28
v 0.28 0.495 0.37
v 0.4 0.495 0.37
v 0.4 0.795 0.37
v 0.28 0.795 0.37
v -0.1525 0.495 -0.38
v -0.0875 0.795 -0.38
v -0.0875 0.495 -0.38
v -0.1525 0.795 -0.38
v -0.1525 0.495 0.38
v -0.0875 0.495 0.38
v -0.0875 0.795 0.38
v -0.1525 0.795 0.38
v -0.715 0 -0.45
v -0.425 0.29 -0.45
v -0.425 0 -0.45
v -0.715 0.29 -0.45
v -0.715 0 -0.34
v -0.425 0 -0.34
v -0.425 0.29 -0.34
v -0.715 0.29 -0.34
v -0.715 0 0.34
v -0.425 0.29 0.34
v -0.425 0 0.34
v -0.715 0.29 0.34
v -0.715 0 0.45
v -0.425 0 0.45
v -0.425 0.29 0.45
v -0.715 0.29 0.45
v 0.425 0 -0.45
v 0.715 0.29 -0.45
v 0.715 0 -0.45
v 0.425 0.29 -0.45
v 0.425 0 -0.34
v 0.715 0 -0.34
v 0.715 0.29 -0.34
v 0.425 0.29 -0.34
v 0.425 0 0.34
v 0.715 0.29 0.34
v 0.715 0 0.34
v 0.425 0.29 0.34
v 0.425 0 0.45
v 0.715 0 0.45
v 0.715 0.29 0.45
v 0.425 0.29 0.45
v 0.909 0.275 -0.32
v 0.927 0.385 -0.32
v 0.927 0.275 -0.32
v 0.909 0.385 -0.32
v 0.909 0.275 -0.17
v 0.927 0.275 -0.17
v 0.927 0.385 -0.17
v 0.909 0.385 -0.17
v -0.927 0.28 -0.31
v -0.909 0.38 -0.31
v -0.909 0.28 -0.31
v -0.927 0.38 -0.31
v -0.927 0.28 -0.18
v -0.909 0.28 -0.18
v -0.909 0.38 -0.18
v -0.927 0.38 -0.18
v 0.909 0.275 0.17
v 0.927 0.385 0.17
v 0.927 0.275 0.17
v 0.909 0.385 0.17
v 0.909 0.275 0.32
v 0.927 0.275 0.32
v 0.927 0.385 0.32
v 0.909 0.385 0.32
v -0.927 0.28 0.18
v -0.909 0.38 0.18
v -0.909 0.28 0.18
v -0.927 0.38 0.18
v -0.927 0.28 0.31
v -0.909 0.28 0.31
v -0.909 0.38 0.31
v -0.927 0.38 0.31
vn 0 1 0
vn 0 0 -1
vn 0 0 1
vn 0 -1 0
vn -1 0 0
vn 1 0 0
usemtl shadow
f 1//1 2//1 3//1
f 1//1 3//1 4//1
usemtl paint
f 5//2 6//2 7//2
f 5//2 8//2 6//2
f 9//3 10//3 11//3
f 9//3 11//3 12//3
f 5//4 7//4 10//4
f 5//4 10//4 9//4
f 8//1 12//1 11//1
f 8//1 11//1 6//1
f 5//5 9//5 12//5
f 5//5 12//5 8//5
f 7//6 6//6 11//6
f 7//6 11//6 10//6
usemtl glass
f 13//2 14//2 15//2
f 13//2 16//2 14//2
f 17//3 18//3 19//3
f 17//3 19//3 20//3
f 13//4 15//4 18//4
f 13//4 18//4 17//4
f 16//1 20//1 19//1
f 16//1 19//1 14//1
f 13//5 17//5 20//5
f 13//5 20//5 16//5
f 15//6 14//6 19//6
f 15//6 19//6 18//6
usemtl roof
f 21//2 22//2 23//2
f 21//2 24//2 22//2
f 25//3 26//3 27//3
f 25//3 27//3 28//3
f 21//4 23//4 26//4
f 21//4 26//4 25//4
f 24//1 28//1 27//1
f 24//1 27//1 22//1
f 21//5 25//5 28//5
f 21//5 28//5 24//5
f 23//6 22//6 27//6
f 23//6 27//6 26//6
f 29//2 30//2 31//2
f 29//2 32//2 30//2
f 33//3 34//3 35//3
f 33//3 35//3 36//3
f 29//4 31//4 34//4
f 29//4 34//4 33//4
f 32//1 36//1 35//1
f 32//1 35//1 30//1
f 29//5 33//5 36//5
f 29//5 36//5 32//5
f 31//6 30//6 35//6
f 31//6 35//6 34//6
f 37//2 38//2 39//2
f 37//2 40//2 38//2
f 41//3 42//3 43//3
f 41//3 43//3 44//3
f 37//4 39//4 42//4
f 37//4 42//4 41//4
f 40//1 44//1 43//1
f 40//1 43//1 38//1
f 37//5 41//5 44//5
f 37//5 44//5 40//5
f 39//6 38//6 43//6
f 39//6 43//6 42//6
f 45//2 46//2 47//2
f 45//2 48//2 46//2
f 49//3 50//3 51//3
f 49//3 51//3 52//3
f 45//4 47//4 50//4
f 45//4 50//4 49//4
f 48//1 52//1 51//1
f 48//1 51//1 46//1
f 45//5 49//5 52//5
f 45//5 52//5 48//5
f 47//6 46//6 51//6
f 47//6 51//6 50//6
f 53//2 54//2 55//2
f 53//2 56//2 54//2
f 57//3 58//3 59//3
f 57//3 59//3 60//3
f 53//4 55//4 58//4
f 53//4 58//4 57//4
f 56//1 60//1 59//1
f 56//1 59//1 54//1
f 53//5 57//5 60//5
f 53//5 60//5 56//5
f 55//6 54//6 59//6
f 55//6 59//6 58//6
f 61//2 62//2 63//2
f 61//2 64//2 62//2
f 65//3 66//3 67//3
f 65//3 67//3 68//3
f 61//4 63//4 66//4
f 61//4 66//4 65//4
f 64//1 68//1 67//1
f 64//1 67//1 62//1
f 61//5 65//5 68//5
f 61//5 68//5 64//5
f 63//6 62//6 67//6
f 63//6 67//6 66//6
usemtl tire
f 69//2 70//2 71//2
f 69//2 72//2 70//2
f 73//3 74//3 75//3
f 73//3 75//3 76//3
f 69//4 71//4 74//4
f 69//4 74//4 73//4
f 72//1 76//1 75//1
f 72//1 75//1 70//1
f 69//5 73//5 76//5
f 69//5 76//5 72//5
f 71//6 70//6 75//6
f 71//6 75//6 74//6
f 77//2 78//2 79//2
f 77//2 80//2 78//2
f 81//3 82//3 83//3
f 81//3 83//3 84//3
f 77//4 79//4 82//4
f 77//4 82//4 81//4
f 80//1 84//1 83//1
f 80//1 83//1 78//1
f 77//5 81//5 84//5
f 77//5 84//5 80//5
f 79//6 78//6 83//6
f 79//6 83//6 82//6
f 85//2 86//2 87//2
f 85//2 88//2 86//2
f 89//3 90//3 91//3
f 89//3 91//3 92//3
f 85//4 87//4 90//4
f 85//4 90//4 89//4
f 88//1 92//1 91//1
f 88//1 91//1 86//1
f 85//5 89//5 92//5
f 85//5 92//5 88//5
f 87//6 86//6 91//6
f 87//6 91//6 90//6
f 93//2 94//2 95//2
f 93//2 96//2 94//2
f 97//3 98//3 99//3
f 97//3 99//3 100//3
f 93//4 95//4 98//4
f 93//4 98//4 97//4
f 96//1 100//1 99//1
f 96//1 99//1 94//1
f 93//5 97//5 100//5
f 93//5 100//5 96//5
f 95//6 94//6 99//6
f 95//6 99//6 98//6
usemtl lamp
f 101//2 102//2 103//2
f 101//2 104//2 102//2
f 105//3 106//3 107//3
f 105//3 107//3 108//3
f 101//4 103//4 106//4
f 101//4 106//4 105//4
f 104//1 108//1 107//1
f 104//1 107//1 102//1
f 101//5 105//5 108//5
f 101//5 108//5 104//5
f 103//6 102//6 107//6
f 103//6 107//6 106//6
usemtl tail
f 109//2 110//2 111//2
f 109//2 112//2 110//2
f 113//3 114//3 115//3
f 113//3 115//3 116//3
f 109//4 111//4 114//4
f 109//4 114//4 113//4
f 112//1 116//1 115//1
f 112//1 115//1 110//1
f 109//5 113//5 116//5
f 109//5 116//5 112//5
f 111//6 110//6 115//6
f 111//6 115//6 114//6
usemtl lamp
f 117//2 118//2 119//2
f 117//2 120//2 118//2
f 121//3 122//3 123//3
f 121//3 123//3 124//3
f 117//4 119//4 122//4
f 117//4 122//4 121//4
f 120//1 124//1 123//1
f 120//1 123//1 118//1
f 117//5 121//5 124//5
f 117//5 124//5 120//5
f 119//6 118//6 123//6
f 119//6 123//6 122//6
usemtl tail
f 125//2 126//2 127//2
f 125//2 128//2 126//2
f 129//3 130//3 131//3
f 129//3 131//3 132//3
f 125//4 127//4 130//4
f 125//4 130//4 129//4
f 128//1 132//1 131//1
f 128//1 131//1 126//1
f 125//5 129//5 132//5
f 125//5 132//5 128//5
f 127//6 126//6 131//6
f 127//6 131//6 130//6
