# Generated for AthenaENV Model3D.load
mtllib chicken.mtl
v -0.215 0.175 -0.195
v 0.215 0.665 -0.195
v 0.215 0.175 -0.195
v -0.215 0.665 -0.195
v -0.215 0.175 0.225
v 0.215 0.175 0.225
v 0.215 0.665 0.225
v -0.215 0.665 0.225
v -0.215 0.635 -0.195
v 0.215 0.985 -0.195
v 0.215 0.635 -0.195
v -0.215 0.985 -0.195
v -0.215 0.635 0.185
v 0.215 0.635 0.185
v 0.215 0.985 0.185
v -0.215 0.985 0.185
v -0.3045 0.31 -0.11
v -0.1895 0.49 -0.11
v -0.1895 0.31 -0.11
v -0.3045 0.49 -0.11
v -0.3045 0.31 0.2
v -0.1895 0.31 0.2
v -0.1895 0.49 0.2
v -0.3045 0.49 0.2
v 0.1895 0.31 -0.11
v 0.3045 0.49 -0.11
v 0.3045 0.31 -0.11
v 0.1895 0.49 -0.11
v 0.1895 0.31 0.2
v 0.3045 0.31 0.2
v 0.3045 0.49 0.2
v 0.1895 0.49 0.2
v -0.095 0.685 -0.37
v 0.095 0.835 -0.37
v 0.095 0.685 -0.37
v -0.095 0.835 -0.37
v -0.095 0.685 -0.19
v 0.095 0.685 -0.19
v 0.095 0.835 -0.19
v -0.095 0.835 -0.19
v -0.06 0.57 -0.33
v 0.06 0.7 -0.33
v 0.06 0.57 -0.33
v -0.06 0.7 -0.33
v -0.06 0.57 -0.22
v 0.06 0.57 -0.22
v 0.06 0.7 -0.22
v -0.06 0.7 -0.22
v -0.065 0.97 -0.14
v 0.065 1.1 -0.14
v 0.065 0.97 -0.14
v -0.065 1.1 -0.14
v -0.065 0.97 0.11
v 0.065 0.97 0.11
v 0.065 1.1 0.11
v -0.065 1.1 0.11
v -0.224 0.805 -0.1325
v -0.212 0.865 -0.1325
v -0.212 0.805 -0.1325
v -0.224 0.865 -0.1325
v -0.224 0.805 -0.0775
v -0.212 0.805 -0.0775
v -0.212 0.865 -0.0775
v -0.224 0.865 -0.0775
v 0.212 0.805 -0.1325
v 0.224 0.865 -0.1325
v 0.224 0.805 -0.1325
v 0.212 0.865 -0.1325
v 0.212 0.805 -0.0775
v 0.224 0.805 -0.0775
v 0.224 0.865 -0.0775
v 0.212 0.865 -0.0775
v -0.155 0.05 -0.015
v -0.095 0.2 -0.015
v -0.095 0.05 -0.015
v -0.155 0.2 -0.015
v -0.155 0.05 0.045
v -0.095 0.05 0.045
v -0.095 0.2 0.045
v -0.155 0.2 0.045
v -0.2025 0 -0.13
v -0.0475 0.06 -0.13
v -0.0475 0 -0.13
v -0.2025 0.06 -0.13
v -0.2025 0 0.07
v -0.0475 0 0.07
v -0.0475 0.06 0.07
v -0.2025 0.06 0.07
v -0.1975 0 -0.22
v -0.1425 0.06 -0.22
v -0.1425 0 -0.22
v -0.1975 0.06 -0.22
v -0.1975 0 -0.13
v -0.1425 0 -0.13
v -0.1425 0.06 -0.13
v -0.1975 0.06 -0.13
v -0.1075 0 -0.22
v -0.0525 0.06 -0.22
v -0.0525 0 -0.22
v -0.1075 0.06 -0.22
v -0.1075 0 -0.13
v -0.0525 0 -0.13
v -0.0525 0.06 -0.13
v -0.1075 0.06 -0.13
v 0.095 0.05 -0.015
v 0.155 0.2 -0.015
v 0.155 0.05 -0.015
v 0.095 0.2 -0.015
v 0.095 0.05 0.045
v 0.155 0.05 0.045
v 0.155 0.2 0.045
v 0.095 0.2 0.045
v 0.0475 0 -0.13
v 0.2025 0.06 -0.13
v 0.2025 0 -0.13
v 0.0475 0.06 -0.13
v 0.0475 0 0.07
v 0.2025 0 0.07
v 0.2025 0.06 0.07
v 0.0475 0.06 0.07
v 0.0525 0 -0.22
v 0.1075 0.06 -0.22
v 0.1075 0 -0.22
v 0.0525 0.06 -0.22
v 0.0525 0 -0.13
v 0.1075 0 -0.13
v 0.1075 0.06 -0.13
v 0.0525 0.06 -0.13
v 0.1425 0 -0.22
v 0.1975 0.06 -0.22
v 0.1975 0 -0.22
v 0.1425 0.06 -0.22
v 0.1425 0 -0.13
v 0.1975 0 -0.13
v 0.1975 0.06 -0.13
v 0.1425 0.06 -0.13
vn 0 0 -1
vn 0 0 1
vn 0 -1 0
vn 0 1 0
vn -1 0 0
vn 1 0 0
usemtl feather
f 1//1 2//1 3//1
f 1//1 4//1 2//1
f 5//2 6//2 7//2
f 5//2 7//2 8//2
f 1//3 3//3 6//3
f 1//3 6//3 5//3
f 4//4 8//4 7//4
f 4//4 7//4 2//4
f 1//5 5//5 8//5
f 1//5 8//5 4//5
f 3//6 2//6 7//6
f 3//6 7//6 6//6
f 9//1 10//1 11//1
f 9//1 12//1 10//1
f 13//2 14//2 15//2
f 13//2 15//2 16//2
f 9//3 11//3 14//3
f 9//3 14//3 13//3
f 12//4 16//4 15//4
f 12//4 15//4 10//4
f 9//5 13//5 16//5
f 9//5 16//5 12//5
f 11//6 10//6 15//6
f 11//6 15//6 14//6
usemtl wing
f 17//1 18//1 19//1
f 17//1 20//1 18//1
f 21//2 22//2 23//2
f 21//2 23//2 24//2
f 17//3 19//3 22//3
f 17//3 22//3 21//3
f 20//4 24//4 23//4
f 20//4 23//4 18//4
f 17//5 21//5 24//5
f 17//5 24//5 20//5
f 19//6 18//6 23//6
f 19//6 23//6 22//6
f 25//1 26//1 27//1
f 25//1 28//1 26//1
f 29//2 30//2 31//2
f 29//2 31//2 32//2
f 25//3 27//3 30//3
f 25//3 30//3 29//3
f 28//4 32//4 31//4
f 28//4 31//4 26//4
f 25//5 29//5 32//5
f 25//5 32//5 28//5
f 27//6 26//6 31//6
f 27//6 31//6 30//6
usemtl orange
f 33//1 34//1 35//1
f 33//1 36//1 34//1
f 37//2 38//2 39//2
f 37//2 39//2 40//2
f 33//3 35//3 38//3
f 33//3 38//3 37//3
f 36//4 40//4 39//4
f 36//4 39//4 34//4
f 33//5 37//5 40//5
f 33//5 40//5 36//5
f 35//6 34//6 39//6
f 35//6 39//6 38//6
usemtl comb
f 41//1 42//1 43//1
f 41//1 44//1 42//1
f 45//2 46//2 47//2
f 45//2 47//2 48//2
f 41//3 43//3 46//3
f 41//3 46//3 45//3
f 44//4 48//4 47//4
f 44//4 47//4 42//4
f 41//5 45//5 48//5
f 41//5 48//5 44//5
f 43//6 42//6 47//6
f 43//6 47//6 46//6
f 49//1 50//1 51//1
f 49//1 52//1 50//1
f 53//2 54//2 55//2
f 53//2 55//2 56//2
f 49//3 51//3 54//3
f 49//3 54//3 53//3
f 52//4 56//4 55//4
f 52//4 55//4 50//4
f 49//5 53//5 56//5
f 49//5 56//5 52//5
f 51//6 50//6 55//6
f 51//6 55//6 54//6
usemtl eye
f 57//1 58//1 59//1
f 57//1 60//1 58//1
f 61//2 62//2 63//2
f 61//2 63//2 64//2
f 57//3 59//3 62//3
f 57//3 62//3 61//3
f 60//4 64//4 63//4
f 60//4 63//4 58//4
f 57//5 61//5 64//5
f 57//5 64//5 60//5
f 59//6 58//6 63//6
f 59//6 63//6 62//6
f 65//1 66//1 67//1
f 65//1 68//1 66//1
f 69//2 70//2 71//2
f 69//2 71//2 72//2
f 65//3 67//3 70//3
f 65//3 70//3 69//3
f 68//4 72//4 71//4
f 68//4 71//4 66//4
f 65//5 69//5 72//5
f 65//5 72//5 68//5
f 67//6 66//6 71//6
f 67//6 71//6 70//6
usemtl orange
f 73//1 74//1 75//1
f 73//1 76//1 74//1
f 77//2 78//2 79//2
f 77//2 79//2 80//2
f 73//3 75//3 78//3
f 73//3 78//3 77//3
f 76//4 80//4 79//4
f 76//4 79//4 74//4
f 73//5 77//5 80//5
f 73//5 80//5 76//5
f 75//6 74//6 79//6
f 75//6 79//6 78//6
f 81//1 82//1 83//1
f 81//1 84//1 82//1
f 85//2 86//2 87//2
f 85//2 87//2 88//2
f 81//3 83//3 86//3
f 81//3 86//3 85//3
f 84//4 88//4 87//4
f 84//4 87//4 82//4
f 81//5 85//5 88//5
f 81//5 88//5 84//5
f 83//6 82//6 87//6
f 83//6 87//6 86//6
f 89//1 90//1 91//1
f 89//1 92//1 90//1
f 93//2 94//2 95//2
f 93//2 95//2 96//2
f 89//3 91//3 94//3
f 89//3 94//3 93//3
f 92//4 96//4 95//4
f 92//4 95//4 90//4
f 89//5 93//5 96//5
f 89//5 96//5 92//5
f 91//6 90//6 95//6
f 91//6 95//6 94//6
f 97//1 98//1 99//1
f 97//1 100//1 98//1
f 101//2 102//2 103//2
f 101//2 103//2 104//2
f 97//3 99//3 102//3
f 97//3 102//3 101//3
f 100//4 104//4 103//4
f 100//4 103//4 98//4
f 97//5 101//5 104//5
f 97//5 104//5 100//5
f 99//6 98//6 103//6
f 99//6 103//6 102//6
f 105//1 106//1 107//1
f 105//1 108//1 106//1
f 109//2 110//2 111//2
f 109//2 111//2 112//2
f 105//3 107//3 110//3
f 105//3 110//3 109//3
f 108//4 112//4 111//4
f 108//4 111//4 106//4
f 105//5 109//5 112//5
f 105//5 112//5 108//5
f 107//6 106//6 111//6
f 107//6 111//6 110//6
f 113//1 114//1 115//1
f 113//1 116//1 114//1
f 117//2 118//2 119//2
f 117//2 119//2 120//2
f 113//3 115//3 118//3
f 113//3 118//3 117//3
f 116//4 120//4 119//4
f 116//4 119//4 114//4
f 113//5 117//5 120//5
f 113//5 120//5 116//5
f 115//6 114//6 119//6
f 115//6 119//6 118//6
f 121//1 122//1 123//1
f 121//1 124//1 122//1
f 125//2 126//2 127//2
f 125//2 127//2 128//2
f 121//3 123//3 126//3
f 121//3 126//3 125//3
f 124//4 128//4 127//4
f 124//4 127//4 122//4
f 121//5 125//5 128//5
f 121//5 128//5 124//5
f 123//6 122//6 127//6
f 123//6 127//6 126//6
f 129//1 130//1 131//1
f 129//1 132//1 130//1
f 133//2 134//2 135//2
f 133//2 135//2 136//2
f 129//3 131//3 134//3
f 129//3 134//3 133//3
f 132//4 136//4 135//4
f 132//4 135//4 130//4
f 129//5 133//5 136//5
f 129//5 136//5 132//5
f 131//6 130//6 135//6
f 131//6 135//6 134//6
