# Generated for AthenaENV Model3D.load
mtllib coin.mtl
v -0.13 -0.2 -0.045
v 0.13 0.2 -0.045
v 0.13 -0.2 -0.045
v -0.13 0.2 -0.045
v -0.13 -0.2 0.045
v 0.13 -0.2 0.045
v 0.13 0.2 0.045
v -0.13 0.2 0.045
v -0.2 -0.13 -0.045
v 0.2 0.13 -0.045
v 0.2 -0.13 -0.045
v -0.2 0.13 -0.045
v -0.2 -0.13 0.045
v 0.2 -0.13 0.045
v 0.2 0.13 0.045
v -0.2 0.13 0.045
v -0.11 -0.11 -0.056
v 0.11 0.11 -0.056
v 0.11 -0.11 -0.056
v -0.11 0.11 -0.056
v -0.11 -0.11 -0.044
v 0.11 -0.11 -0.044
v 0.11 0.11 -0.044
v -0.11 0.11 -0.044
v -0.03 -0.08 -0.0595
v 0.03 0.08 -0.0595
v 0.03 -0.08 -0.0595
v -0.03 0.08 -0.0595
v -0.03 -0.08 -0.0455
v 0.03 -0.08 -0.0455
v 0.03 0.08 -0.0455
v -0.03 0.08 -0.0455
v -0.11 -0.11 0.044
v 0.11 0.11 0.044
v 0.11 -0.11 0.044
v -0.11 0.11 0.044
v -0.11 -0.11 0.056
v 0.11 -0.11 0.056
v 0.11 0.11 0.056
v -0.11 0.11 0.056
v -0.03 -0.08 0.0455
v 0.03 0.08 0.0455
v 0.03 -0.08 0.0455
v -0.03 0.08 0.0455
v -0.03 -0.08 0.0595
v 0.03 -0.08 0.0595
v 0.03 0.08 0.0595
v -0.03 0.08 0.0595
vn 0 0 -1
vn 0 0 1
vn 0 -1 0
vn 0 1 0
vn -1 0 0
vn 1 0 0
usemtl coin_rim
f 1//1 2//1 3//1
f 1//1 4//1 2//1
f 5//2 6//2 7//2
f 5//2 7//2 8//2
f 1//3 3//3 6//3
f 1//3 6//3 5//3
f 4//4 8//4 7//4
f 4//4 7//4 2//4
f 1//5 5//5 8//5
f 1//5 8//5 4//5
f 3//6 2//6 7//6
f 3//6 7//6 6//6
f 9//1 10//1 11//1
f 9//1 12//1 10//1
f 13//2 14//2 15//2
f 13//2 15//2 16//2
f 9//3 11//3 14//3
f 9//3 14//3 13//3
f 12//4 16//4 15//4
f 12//4 15//4 10//4
f 9//5 13//5 16//5
f 9//5 16//5 12//5
f 11//6 10//6 15//6
f 11//6 15//6 14//6
usemtl coin_face
f 17//1 18//1 19//1
f 17//1 20//1 18//1
f 21//2 22//2 23//2
f 21//2 23//2 24//2
f 17//3 19//3 22//3
f 17//3 22//3 21//3
f 20//4 24//4 23//4
f 20//4 23//4 18//4
f 17//5 21//5 24//5
f 17//5 24//5 20//5
f 19//6 18//6 23//6
f 19//6 23//6 22//6
usemtl coin_mark
f 25//1 26//1 27//1
f 25//1 28//1 26//1
f 29//2 30//2 31//2
f 29//2 31//2 32//2
f 25//3 27//3 30//3
f 25//3 30//3 29//3
f 28//4 32//4 31//4
f 28//4 31//4 26//4
f 25//5 29//5 32//5
f 25//5 32//5 28//5
f 27//6 26//6 31//6
f 27//6 31//6 30//6
usemtl coin_face
f 33//1 34//1 35//1
f 33//1 36//1 34//1
f 37//2 38//2 39//2
f 37//2 39//2 40//2
f 33//3 35//3 38//3
f 33//3 38//3 37//3
f 36//4 40//4 39//4
f 36//4 39//4 34//4
f 33//5 37//5 40//5
f 33//5 40//5 36//5
f 35//6 34//6 39//6
f 35//6 39//6 38//6
usemtl coin_mark
f 41//1 42//1 43//1
f 41//1 44//1 42//1
f 45//2 46//2 47//2
f 45//2 47//2 48//2
f 41//3 43//3 46//3
f 41//3 46//3 45//3
f 44//4 48//4 47//4
f 44//4 47//4 42//4
f 41//5 45//5 48//5
f 41//5 48//5 44//5
f 43//6 42//6 47//6
f 43//6 47//6 46//6
