# Generated for AthenaENV Model3D.load
mtllib grass_alt.mtl
v -4.5 0 -0.5
v 4.5 0.065 -0.5
v 4.5 0 -0.5
v -4.5 0.065 -0.5
v -4.5 0 0.5
v 4.5 0 0.5
v 4.5 0.065 0.5
v -4.5 0.065 0.5
v -16 0 -0.5
v -16 0.065 -0.5
v -16 0 0.5
v -16 0.065 0.5
v 16 0.065 -0.5
v 16 0 -0.5
v 16 0 0.5
v 16 0.065 0.5
v -16 -0.13 0.5
v 16 -0.13 0.5
v 2.3630719 0.065 -0.28717062
v 2.4030719 0.165 -0.28717062
v 2.4030719 0.065 -0.28717062
v 2.3630719 0.165 -0.28717062
v 2.3630719 0.065 -0.24717062
v 2.4030719 0.065 -0.24717062
v 2.4030719 0.165 -0.24717062
v 2.3630719 0.165 -0.24717062
v 2.3180719 0.15 -0.33217062
v 2.4480719 0.21 -0.33217062
v 2.4480719 0.15 -0.33217062
v 2.3180719 0.21 -0.33217062
v 2.3180719 0.15 -0.20217062
v 2.4480719 0.15 -0.20217062
v 2.4480719 0.21 -0.20217062
v 2.3180719 0.21 -0.20217062
v -0.67664559 0.065 0.14529937
v -0.52664559 0.22187257 0.14529937
v -0.52664559 0.065 0.14529937
v -0.67664559 0.22187257 0.14529937
v -0.67664559 0.065 0.22529937
v -0.52664559 0.065 0.22529937
v -0.52664559 0.22187257 0.22529937
v -0.67664559 0.22187257 0.22529937
v -0.59164559 0.065 0.13529937
v -0.51164559 0.1748108 0.13529937
v -0.51164559 0.065 0.13529937
v -0.59164559 0.1748108 0.13529937
v -0.59164559 0.065 0.27529937
v -0.51164559 0.065 0.27529937
v -0.51164559 0.1748108 0.27529937
v -0.59164559 0.1748108 0.27529937
v -9.5651196 0.065 0.36933215
v -9.5251196 0.165 0.36933215
v -9.5251196 0.065 0.36933215
v -9.5651196 0.165 0.36933215
v -9.5651196 0.065 0.40933215
v -9.5251196 0.065 0.40933215
v -9.5251196 0.165 0.40933215
v -9.5651196 0.165 0.40933215
v -9.6101196 0.15 0.32433215
v -9.4801196 0.21 0.32433215
v -9.4801196 0.15 0.32433215
v -9.6101196 0.21 0.32433215
v -9.6101196 0.15 0.45433215
v -9.4801196 0.15 0.45433215
v -9.4801196 0.21 0.45433215
v -9.6101196 0.21 0.45433215
v -4.6495345 0.065 0.056618751
v -4.4995345 0.22205886 0.056618751
v -4.4995345 0.065 0.056618751
v -4.6495345 0.22205886 0.056618751
v -4.6495345 0.065 0.13661875
v -4.4995345 0.065 0.13661875
v -4.4995345 0.22205886 0.13661875
v -4.6495345 0.22205886 0.13661875
v -4.5645345 0.065 0.046618751
v -4.4845345 0.1749412 0.046618751
v -4.4845345 0.065 0.046618751
v -4.5645345 0.1749412 0.046618751
v -4.5645345 0.065 0.18661875
v -4.4845345 0.065 0.18661875
v -4.4845345 0.1749412 0.18661875
v -4.5645345 0.1749412 0.18661875
v -8.6283108 0.065 0.2328367
v -8.4783108 0.21857428 0.2328367
v -8.4783108 0.065 0.2328367
v -8.6283108 0.21857428 0.2328367
v -8.6283108 0.065 0.3128367
v -8.4783108 0.065 0.3128367
v -8.4783108 0.21857428 0.3128367
v -8.6283108 0.21857428 0.3128367
v -8.5433108 0.065 0.2228367
v -8.4633108 0.172502 0.2228367
v -8.4633108 0.065 0.2228367
v -8.5433108 0.172502 0.2228367
v -8.5433108 0.065 0.3628367
v -8.4633108 0.065 0.3628367
v -8.4633108 0.172502 0.3628367
v -8.5433108 0.172502 0.3628367
v 4.509476 0.065 -0.42516975
v 4.659476 0.18361531 -0.42516975
v 4.659476 0.065 -0.42516975
v 4.509476 0.18361531 -0.42516975
v 4.509476 0.065 -0.34516975
v 4.659476 0.065 -0.34516975
v 4.659476 0.18361531 -0.34516975
v 4.509476 0.18361531 -0.34516975
v 4.594476 0.065 -0.43516975
v 4.674476 0.14803072 -0.43516975
v 4.674476 0.065 -0.43516975
v 4.594476 0.14803072 -0.43516975
v 4.594476 0.065 -0.29516975
v 4.674476 0.065 -0.29516975
v 4.674476 0.14803072 -0.29516975
v 4.594476 0.14803072 -0.29516975
v -1.6924683 0.065 -0.41913919
v -1.5424683 0.20109381 -0.41913919
v -1.5424683 0.065 -0.41913919
v -1.6924683 0.20109381 -0.41913919
v -1.6924683 0.065 -0.33913919
v -1.5424683 0.065 -0.33913919
v -1.5424683 0.20109381 -0.33913919
v -1.6924683 0.20109381 -0.33913919
v -1.6074683 0.065 -0.42913919
v -1.5274683 0.16026567 -0.42913919
v -1.5274683 0.065 -0.42913919
v -1.6074683 0.16026567 -0.42913919
v -1.6074683 0.065 -0.28913919
v -1.5274683 0.065 -0.28913919
v -1.5274683 0.16026567 -0.28913919
v -1.6074683 0.16026567 -0.28913919
v -6.4467659 0.065 -0.094247092
v -6.4067659 0.165 -0.094247092
v -6.4067659 0.065 -0.094247092
v -6.4467659 0.165 -0.094247092
v -6.4467659 0.065 -0.054247092
v -6.4067659 0.065 -0.054247092
v -6.4067659 0.165 -0.054247092
v -6.4467659 0.165 -0.054247092
v -6.4917659 0.15 -0.13924709
v -6.3617659 0.21 -0.13924709
v -6.3617659 0.15 -0.13924709
v -6.4917659 0.21 -0.13924709
v -6.4917659 0.15 -0.0092470919
v -6.3617659 0.15 -0.0092470919
v -6.3617659 0.21 -0.0092470919
v -6.4917659 0.21 -0.0092470919
v -3.3885877 0.065 -0.35770643
v -3.3485877 0.165 -0.35770643
v -3.3485877 0.065 -0.35770643
v -3.3885877 0.165 -0.35770643
v -3.3885877 0.065 -0.31770643
v -3.3485877 0.065 -0.31770643
v -3.3485877 0.165 -0.31770643
v -3.3885877 0.165 -0.31770643
v -3.4335877 0.15 -0.40270643
v -3.3035877 0.21 -0.40270643
v -3.3035877 0.15 -0.40270643
v -3.4335877 0.21 -0.40270643
v -3.4335877 0.15 -0.27270643
v -3.3035877 0.15 -0.27270643
v -3.3035877 0.21 -0.27270643
v -3.4335877 0.21 -0.27270643
vn 0 0 -1
vn 0 0 1
vn 0 -1 0
vn 0 1 0
vn -1 0 0
vn 1 0 0
usemtl grass
f 1//1 2//1 3//1
f 1//1 4//1 2//1
f 5//2 6//2 7//2
f 5//2 7//2 8//2
f 1//3 3//3 6//3
f 1//3 6//3 5//3
f 4//4 8//4 7//4
f 4//4 7//4 2//4
f 1//5 5//5 8//5
f 1//5 8//5 4//5
f 3//6 2//6 7//6
f 3//6 7//6 6//6
usemtl grass_out
f 9//1 4//1 1//1
f 9//1 10//1 4//1
f 11//2 5//2 8//2
f 11//2 8//2 12//2
f 9//3 1//3 5//3
f 9//3 5//3 11//3
f 10//4 12//4 8//4
f 10//4 8//4 4//4
f 9//5 11//5 12//5
f 9//5 12//5 10//5
f 1//6 4//6 8//6
f 1//6 8//6 5//6
f 3//1 13//1 14//1
f 3//1 2//1 13//1
f 6//2 15//2 16//2
f 6//2 16//2 7//2
f 3//3 14//3 15//3
f 3//3 15//3 6//3
f 2//4 7//4 16//4
f 2//4 16//4 13//4
f 3//5 6//5 7//5
f 3//5 7//5 2//5
f 14//6 13//6 16//6
f 14//6 16//6 15//6
usemtl earth
f 17//2 18//2 15//2
f 17//2 15//2 11//2
usemtl tuft
f 19//1 20//1 21//1
f 19//1 22//1 20//1
f 23//2 24//2 25//2
f 23//2 25//2 26//2
f 19//3 21//3 24//3
f 19//3 24//3 23//3
f 22//4 26//4 25//4
f 22//4 25//4 20//4
f 19//5 23//5 26//5
f 19//5 26//5 22//5
f 21//6 20//6 25//6
f 21//6 25//6 24//6
usemtl petal_pink
f 27//1 28//1 29//1
f 27//1 30//1 28//1
f 31//2 32//2 33//2
f 31//2 33//2 34//2
f 27//3 29//3 32//3
f 27//3 32//3 31//3
f 30//4 34//4 33//4
f 30//4 33//4 28//4
f 27//5 31//5 34//5
f 27//5 34//5 30//5
f 29//6 28//6 33//6
f 29//6 33//6 32//6
usemtl tuft
f 35//1 36//1 37//1
f 35//1 38//1 36//1
f 39//2 40//2 41//2
f 39//2 41//2 42//2
f 35//3 37//3 40//3
f 35//3 40//3 39//3
f 38//4 42//4 41//4
f 38//4 41//4 36//4
f 35//5 39//5 42//5
f 35//5 42//5 38//5
f 37//6 36//6 41//6
f 37//6 41//6 40//6
usemtl tuft_light
f 43//1 44//1 45//1
f 43//1 46//1 44//1
f 47//2 48//2 49//2
f 47//2 49//2 50//2
f 43//3 45//3 48//3
f 43//3 48//3 47//3
f 46//4 50//4 49//4
f 46//4 49//4 44//4
f 43//5 47//5 50//5
f 43//5 50//5 46//5
f 45//6 44//6 49//6
f 45//6 49//6 48//6
usemtl tuft
f 51//1 52//1 53//1
f 51//1 54//1 52//1
f 55//2 56//2 57//2
f 55//2 57//2 58//2
f 51//3 53//3 56//3
f 51//3 56//3 55//3
f 54//4 58//4 57//4
f 54//4 57//4 52//4
f 51//5 55//5 58//5
f 51//5 58//5 54//5
f 53//6 52//6 57//6
f 53//6 57//6 56//6
usemtl petal_yellow
f 59//1 60//1 61//1
f 59//1 62//1 60//1
f 63//2 64//2 65//2
f 63//2 65//2 66//2
f 59//3 61//3 64//3
f 59//3 64//3 63//3
f 62//4 66//4 65//4
f 62//4 65//4 60//4
f 59//5 63//5 66//5
f 59//5 66//5 62//5
f 61//6 60//6 65//6
f 61//6 65//6 64//6
usemtl tuft
f 67//1 68//1 69//1
f 67//1 70//1 68//1
f 71//2 72//2 73//2
f 71//2 73//2 74//2
f 67//3 69//3 72//3
f 67//3 72//3 71//3
f 70//4 74//4 73//4
f 70//4 73//4 68//4
f 67//5 71//5 74//5
f 67//5 74//5 70//5
f 69//6 68//6 73//6
f 69//6 73//6 72//6
usemtl tuft_light
f 75//1 76//1 77//1
f 75//1 78//1 76//1
f 79//2 80//2 81//2
f 79//2 81//2 82//2
f 75//3 77//3 80//3
f 75//3 80//3 79//3
f 78//4 82//4 81//4
f 78//4 81//4 76//4
f 75//5 79//5 82//5
f 75//5 82//5 78//5
f 77//6 76//6 81//6
f 77//6 81//6 80//6
usemtl tuft
f 83//1 84//1 85//1
f 83//1 86//1 84//1
f 87//2 88//2 89//2
f 87//2 89//2 90//2
f 83//3 85//3 88//3
f 83//3 88//3 87//3
f 86//4 90//4 89//4
f 86//4 89//4 84//4
f 83//5 87//5 90//5
f 83//5 90//5 86//5
f 85//6 84//6 89//6
f 85//6 89//6 88//6
usemtl tuft_light
f 91//1 92//1 93//1
f 91//1 94//1 92//1
f 95//2 96//2 97//2
f 95//2 97//2 98//2
f 91//3 93//3 96//3
f 91//3 96//3 95//3
f 94//4 98//4 97//4
f 94//4 97//4 92//4
f 91//5 95//5 98//5
f 91//5 98//5 94//5
f 93//6 92//6 97//6
f 93//6 97//6 96//6
usemtl tuft
f 99//1 100//1 101//1
f 99//1 102//1 100//1
f 103//2 104//2 105//2
f 103//2 105//2 106//2
f 99//3 101//3 104//3
f 99//3 104//3 103//3
f 102//4 106//4 105//4
f 102//4 105//4 100//4
f 99//5 103//5 106//5
f 99//5 106//5 102//5
f 101//6 100//6 105//6
f 101//6 105//6 104//6
usemtl tuft_light
f 107//1 108//1 109//1
f 107//1 110//1 108//1
f 111//2 112//2 113//2
f 111//2 113//2 114//2
f 107//3 109//3 112//3
f 107//3 112//3 111//3
f 110//4 114//4 113//4
f 110//4 113//4 108//4
f 107//5 111//5 114//5
f 107//5 114//5 110//5
f 109//6 108//6 113//6
f 109//6 113//6 112//6
usemtl tuft
f 115//1 116//1 117//1
f 115//1 118//1 116//1
f 119//2 120//2 121//2
f 119//2 121//2 122//2
f 115//3 117//3 120//3
f 115//3 120//3 119//3
f 118//4 122//4 121//4
f 118//4 121//4 116//4
f 115//5 119//5 122//5
f 115//5 122//5 118//5
f 117//6 116//6 121//6
f 117//6 121//6 120//6
usemtl tuft_light
f 123//1 124//1 125//1
f 123//1 126//1 124//1
f 127//2 128//2 129//2
f 127//2 129//2 130//2
f 123//3 125//3 128//3
f 123//3 128//3 127//3
f 126//4 130//4 129//4
f 126//4 129//4 124//4
f 123//5 127//5 130//5
f 123//5 130//5 126//5
f 125//6 124//6 129//6
f 125//6 129//6 128//6
usemtl tuft
f 131//1 132//1 133//1
f 131//1 134//1 132//1
f 135//2 136//2 137//2
f 135//2 137//2 138//2
f 131//3 133//3 136//3
f 131//3 136//3 135//3
f 134//4 138//4 137//4
f 134//4 137//4 132//4
f 131//5 135//5 138//5
f 131//5 138//5 134//5
f 133//6 132//6 137//6
f 133//6 137//6 136//6
usemtl petal_yellow
f 139//1 140//1 141//1
f 139//1 142//1 140//1
f 143//2 144//2 145//2
f 143//2 145//2 146//2
f 139//3 141//3 144//3
f 139//3 144//3 143//3
f 142//4 146//4 145//4
f 142//4 145//4 140//4
f 139//5 143//5 146//5
f 139//5 146//5 142//5
f 141//6 140//6 145//6
f 141//6 145//6 144//6
usemtl tuft
f 147//1 148//1 149//1
f 147//1 150//1 148//1
f 151//2 152//2 153//2
f 151//2 153//2 154//2
f 147//3 149//3 152//3
f 147//3 152//3 151//3
f 150//4 154//4 153//4
f 150//4 153//4 148//4
f 147//5 151//5 154//5
f 147//5 154//5 150//5
f 149//6 148//6 153//6
f 149//6 153//6 152//6
usemtl petal_yellow
f 155//1 156//1 157//1
f 155//1 158//1 156//1
f 159//2 160//2 161//2
f 159//2 161//2 162//2
f 155//3 157//3 160//3
f 155//3 160//3 159//3
f 158//4 162//4 161//4
f 158//4 161//4 156//4
f 155//5 159//5 162//5
f 155//5 162//5 158//5
f 157//6 156//6 161//6
f 157//6 161//6 160//6
