# Generated for AthenaENV Model3D.load
mtllib grass.mtl
v -4.5 0 -0.5
v 4.5 0.065 -0.5
v 4.5 0 -0.5
v -4.5 0.065 -0.5
v -4.5 0 0.5
v 4.5 0 0.5
v 4.5 0.065 0.5
v -4.5 0.065 0.5
v -16 0 -0.5
v -16 0.065 -0.5
v -16 0 0.5
v -16 0.065 0.5
v 16 0.065 -0.5
v 16 0 -0.5
v 16 0 0.5
v 16 0.065 0.5
v -16 -0.13 0.5
v 16 -0.13 0.5
vn 0 0 -1
vn 0 0 1
vn 0 -1 0
vn 0 1 0
vn -1 0 0
vn 1 0 0
usemtl grass
f 1//1 2//1 3//1
f 1//1 4//1 2//1
f 5//2 6//2 7//2
f 5//2 7//2 8//2
f 1//3 3//3 6//3
f 1//3 6//3 5//3
f 4//4 8//4 7//4
f 4//4 7//4 2//4
f 1//5 5//5 8//5
f 1//5 8//5 4//5
f 3//6 2//6 7//6
f 3//6 7//6 6//6
usemtl grass_out
f 9//1 4//1 1//1
f 9//1 10//1 4//1
f 11//2 5//2 8//2
f 11//2 8//2 12//2
f 9//3 1//3 5//3
f 9//3 5//3 11//3
f 10//4 12//4 8//4
f 10//4 8//4 4//4
f 9//5 11//5 12//5
f 9//5 12//5 10//5
f 1//6 4//6 8//6
f 1//6 8//6 5//6
f 3//1 13//1 14//1
f 3//1 2//1 13//1
f 6//2 15//2 16//2
f 6//2 16//2 7//2
f 3//3 14//3 15//3
f 3//3 15//3 6//3
f 2//4 7//4 16//4
f 2//4 16//4 13//4
f 3//5 6//5 7//5
f 3//5 7//5 2//5
f 14//6 13//6 16//6
f 14//6 16//6 15//6
usemtl earth
f 17//2 18//2 15//2
f 17//2 15//2 11//2
