# Generated for AthenaENV Model3D.load
mtllib lily.mtl
v -0.3 -0.114 -0.3
v -0.3 -0.114 0.5
v 0.5 -0.114 0.5
v 0.5 -0.114 -0.3
v -0.4 -0.13 -0.4
v 0.4 -0.09 -0.4
v 0.4 -0.13 -0.4
v -0.4 -0.09 -0.4
v -0.4 -0.13 0.4
v 0.4 -0.13 0.4
v 0.4 -0.09 0.4
v -0.4 -0.09 0.4
v -0.35 -0.09 -0.35
v 0.35 -0.07 -0.35
v 0.35 -0.09 -0.35
v -0.35 -0.07 -0.35
v -0.35 -0.09 0.21
v 0.35 -0.09 0.21
v 0.35 -0.07 0.21
v -0.35 -0.07 0.21
v 0.05 -0.07 0.21
v 0.05 -0.09 0.21
v -0.35 -0.09 0.35
v 0.05 -0.09 0.35
v 0.05 -0.07 0.35
v -0.35 -0.07 0.35
vn 0 1 0
vn 0 0 -1
vn 0 0 1
vn 0 -1 0
vn -1 0 0
vn 1 0 0
usemtl lily_shadow
f 1//1 2//1 3//1
f 1//1 3//1 4//1
usemtl lily_dark
f 5//2 6//2 7//2
f 5//2 8//2 6//2
f 9//3 10//3 11//3
f 9//3 11//3 12//3
f 5//4 7//4 10//4
f 5//4 10//4 9//4
f 8//1 12//1 11//1
f 8//1 11//1 6//1
f 5//5 9//5 12//5
f 5//5 12//5 8//5
f 7//6 6//6 11//6
f 7//6 11//6 10//6
usemtl lily
f 13//2 14//2 15//2
f 13//2 16//2 14//2
f 17//3 18//3 19//3
f 17//3 19//3 20//3
f 13//4 15//4 18//4
f 13//4 18//4 17//4
f 16//1 20//1 19//1
f 16//1 19//1 14//1
f 13//5 17//5 20//5
f 13//5 20//5 16//5
f 15//6 14//6 19//6
f 15//6 19//6 18//6
f 17//2 21//2 22//2
f 17//2 20//2 21//2
f 23//3 24//3 25//3
f 23//3 25//3 26//3
f 17//4 22//4 24//4
f 17//4 24//4 23//4
f 20//1 26//1 25//1
f 20//1 25//1 21//1
f 17//5 23//5 26//5
f 17//5 26//5 20//5
f 22//6 21//6 25//6
f 22//6 25//6 24//6
