# Generated for AthenaENV Model3D.load
mtllib log4.mtl
v -1.835 -0.112 -0.17
v -1.835 -0.112 0.45
v 2.115 -0.112 0.45
v 2.115 -0.112 -0.17
v -1.94 -0.14 -0.32
v 1.94 0.03 -0.32
v 1.94 -0.14 -0.32
v -1.94 0.03 -0.32
v -1.94 -0.14 0.32
v 1.94 -0.14 0.32
v 1.94 0.03 0.32
v -1.94 0.03 0.32
v -1.94 0.03 -0.29
v 1.94 0.1 -0.29
v 1.94 0.03 -0.29
v -1.94 0.1 -0.29
v -1.94 0.03 0.29
v 1.94 0.03 0.29
v 1.94 0.1 0.29
v -1.94 0.1 0.29
v -1.96 -0.115 -0.25
v -1.94 0.035 -0.25
v -1.94 -0.115 -0.25
v -1.96 0.035 -0.25
v -1.96 -0.115 0.25
v -1.94 -0.115 0.25
v -1.94 0.035 0.25
v -1.96 0.035 0.25
v 1.94 -0.115 -0.25
v 1.96 0.035 -0.25
v 1.96 -0.115 -0.25
v 1.94 0.035 -0.25
v 1.94 -0.115 0.25
v 1.96 -0.115 0.25
v 1.96 0.035 0.25
v 1.94 0.035 0.25
v -2.09 -0.108 -0.26
v -2.09 -0.108 0.26
v -1.93 -0.108 0.26
v -1.93 -0.108 -0.26
v -2.19 -0.108 -0.22
v -2.19 -0.108 -0.06
v -2.09 -0.108 -0.06
v -2.09 -0.108 -0.22
v 1.93 -0.108 -0.26
v 1.93 -0.108 0.26
v 2.09 -0.108 0.26
v 2.09 -0.108 -0.26
v 2.09 -0.108 0.06
v 2.09 -0.108 0.22
v 2.19 -0.108 0.22
v 2.19 -0.108 0.06
vn 0 1 0
vn 0 0 -1
vn 0 0 1
vn 0 -1 0
vn -1 0 0
vn 1 0 0
usemtl log_shadow
f 1//1 2//1 3//1
f 1//1 3//1 4//1
usemtl log_side
f 5//2 6//2 7//2
f 5//2 8//2 6//2
f 9//3 10//3 11//3
f 9//3 11//3 12//3
f 5//4 7//4 10//4
f 5//4 10//4 9//4
f 8//1 12//1 11//1
f 8//1 11//1 6//1
f 5//5 9//5 12//5
f 5//5 12//5 8//5
f 7//6 6//6 11//6
f 7//6 11//6 10//6
usemtl log_top
f 13//2 14//2 15//2
f 13//2 16//2 14//2
f 17//3 18//3 19//3
f 17//3 19//3 20//3
f 13//4 15//4 18//4
f 13//4 18//4 17//4
f 16//1 20//1 19//1
f 16//1 19//1 14//1
f 13//5 17//5 20//5
f 13//5 20//5 16//5
f 15//6 14//6 19//6
f 15//6 19//6 18//6
usemtl log_end
f 21//2 22//2 23//2
f 21//2 24//2 22//2
f 25//3 26//3 27//3
f 25//3 27//3 28//3
f 21//4 23//4 26//4
f 21//4 26//4 25//4
f 24//1 28//1 27//1
f 24//1 27//1 22//1
f 21//5 25//5 28//5
f 21//5 28//5 24//5
f 23//6 22//6 27//6
f 23//6 27//6 26//6
f 29//2 30//2 31//2
f 29//2 32//2 30//2
f 33//3 34//3 35//3
f 33//3 35//3 36//3
f 29//4 31//4 34//4
f 29//4 34//4 33//4
f 32//1 36//1 35//1
f 32//1 35//1 30//1
f 29//5 33//5 36//5
f 29//5 36//5 32//5
f 31//6 30//6 35//6
f 31//6 35//6 34//6
usemtl foam
f 37//1 38//1 39//1
f 37//1 39//1 40//1
f 41//1 42//1 43//1
f 41//1 43//1 44//1
f 45//1 46//1 47//1
f 45//1 47//1 48//1
f 49//1 50//1 51//1
f 49//1 51//1 52//1
