# Generated for AthenaENV Model3D.load
mtllib owl.mtl
v -0.1372 0.12 -0.195
v 0.245 0.2278 -0.195
v 0.1372 0.12 -0.195
v -0.1372 0.12 0.235
v 0.1372 0.12 0.235
v 0.245 0.2278 0.235
v 0.245 0.6322 -0.195
v 0.245 0.6322 0.235
v 0.1372 0.74 -0.195
v 0.1372 0.74 0.235
v -0.1372 0.74 -0.195
v -0.1372 0.74 0.235
v -0.245 0.6322 -0.195
v -0.245 0.6322 0.235
v -0.245 0.2278 -0.195
v -0.245 0.2278 0.235
v -0.2004 0.65 -0.24
v 0.295 0.7446 -0.24
v 0.2004 0.65 -0.24
v -0.2004 0.65 0.24
v 0.2004 0.65 0.24
v 0.295 0.7446 0.24
v 0.295 0.9854 -0.24
v 0.295 0.9854 0.24
v 0.2004 1.08 -0.24
v 0.2004 1.08 0.24
v -0.2004 1.08 -0.24
v -0.2004 1.08 0.24
v -0.295 0.9854 -0.24
v -0.295 0.9854 0.24
v -0.295 0.7446 -0.24
v -0.295 0.7446 0.24
v -0.0952 0.225 -0.2175
v 0.17 0.2998 -0.2175
v 0.0952 0.225 -0.2175
v -0.0952 0.225 -0.1925
v 0.0952 0.225 -0.1925
v 0.17 0.2998 -0.1925
v 0.17 0.5502 -0.2175
v 0.17 0.5502 -0.1925
v 0.0952 0.625 -0.2175
v 0.0952 0.625 -0.1925
v -0.0952 0.625 -0.2175
v -0.0952 0.625 -0.1925
v -0.17 0.5502 -0.2175
v -0.17 0.5502 -0.1925
v -0.17 0.2998 -0.2175
v -0.17 0.2998 -0.1925
v -0.222 0.725 -0.2645
v -0.0075 0.7855 -0.2645
v -0.068 0.725 -0.2645
v -0.222 0.725 -0.2295
v -0.068 0.725 -0.2295
v -0.0075 0.7855 -0.2295
v -0.0075 0.9545 -0.2645
v -0.0075 0.9545 -0.2295
v -0.068 1.015 -0.2645
v -0.068 1.015 -0.2295
v -0.222 1.015 -0.2645
v -0.222 1.015 -0.2295
v -0.2825 0.9545 -0.2645
v -0.2825 0.9545 -0.2295
v -0.2825 0.7855 -0.2645
v -0.2825 0.7855 -0.2295
v -0.2136 0.7375 -0.2825
v -0.0225 0.7914 -0.2825
v -0.0764 0.7375 -0.2825
v -0.2136 0.7375 -0.2575
v -0.0764 0.7375 -0.2575
v -0.0225 0.7914 -0.2575
v -0.0225 0.9386 -0.2825
v -0.0225 0.9386 -0.2575
v -0.0764 0.9925 -0.2825
v -0.0764 0.9925 -0.2575
v -0.2136 0.9925 -0.2825
v -0.2136 0.9925 -0.2575
v -0.2675 0.9386 -0.2825
v -0.2675 0.9386 -0.2575
v -0.2675 0.7914 -0.2825
v -0.2675 0.7914 -0.2575
v -0.187 0.79 -0.299
v -0.07 0.823 -0.299
v -0.103 0.79 -0.299
v -0.187 0.79 -0.281
v -0.103 0.79 -0.281
v -0.07 0.823 -0.281
v -0.07 0.927 -0.299
v -0.07 0.927 -0.281
v -0.103 0.96 -0.299
v -0.103 0.96 -0.281
v -0.187 0.96 -0.299
v -0.187 0.96 -0.281
v -0.22 0.927 -0.299
v -0.22 0.927 -0.281
v -0.22 0.823 -0.299
v -0.22 0.823 -0.281
v -0.179 0.8185 -0.313
v -0.111 0.9315 -0.313
v -0.111 0.8185 -0.313
v -0.179 0.9315 -0.313
v -0.179 0.8185 -0.297
v -0.111 0.8185 -0.297
v -0.111 0.9315 -0.297
v -0.179 0.9315 -0.297
v -0.1785 0.892 -0.325
v -0.1475 0.928 -0.325
v -0.1475 0.892 -0.325
v -0.1785 0.928 -0.325
v -0.1785 0.892 -0.313
v -0.1475 0.892 -0.313
v -0.1475 0.928 -0.313
v -0.1785 0.928 -0.313
v -0.285 1.04 -0.09
v -0.275 1.28 -0.09
v -0.125 1.04 -0.09
v -0.285 1.04 0.14
v -0.125 1.04 0.14
v -0.275 1.28 0.14
v -0.257 1.073 -0.104
v -0.255 1.203 -0.104
v -0.183 1.073 -0.104
v -0.257 1.073 -0.092
v -0.183 1.073 -0.092
v -0.255 1.203 -0.092
v -0.33457784 0.26477287 -0.125
v -0.22683885 0.28381204 -0.125
v -0.25935553 0.25722546 -0.125
v -0.33457784 0.26477287 0.195
v -0.25935553 0.25722546 0.195
v -0.22683885 0.28381204 0.195
v -0.19283559 0.62271045 -0.125
v -0.19283559 0.62271045 0.195
v -0.21942216 0.65522713 -0.125
v -0.21942216 0.65522713 0.195
v -0.29464447 0.66277454 -0.125
v -0.29464447 0.66277454 0.195
v -0.32716115 0.63618796 -0.125
v -0.32716115 0.63618796 0.195
v -0.36116441 0.29728955 -0.125
v -0.36116441 0.29728955 0.195
v -0.3625 0.37 -0.0925
v -0.3275 0.61 -0.0925
v -0.3275 0.37 -0.0925
v -0.3625 0.61 -0.0925
v -0.3625 0.37 0.0125
v -0.3275 0.37 0.0125
v -0.3275 0.61 0.0125
v -0.3625 0.61 0.0125
v -0.3625 0.345 0.0275
v -0.3275 0.535 0.0275
v -0.3275 0.345 0.0275
v -0.3625 0.535 0.0275
v -0.3625 0.345 0.1325
v -0.3275 0.345 0.1325
v -0.3275 0.535 0.1325
v -0.3625 0.535 0.1325
v -0.15 0.04 -0.03
v -0.08 0.14 -0.03
v -0.08 0.04 -0.03
v -0.15 0.14 -0.03
v -0.15 0.04 0.04
v -0.08 0.04 0.04
v -0.08 0.14 0.04
v -0.15 0.14 0.04
v -0.183 0 -0.135
v -0.131 0.05 -0.135
v -0.131 0 -0.135
v -0.183 0.05 -0.135
v -0.183 0 0.025
v -0.131 0 0.025
v -0.131 0.05 0.025
v -0.183 0.05 0.025
v -0.099 0 -0.135
v -0.047 0.05 -0.135
v -0.047 0 -0.135
v -0.099 0.05 -0.135
v -0.099 0 0.025
v -0.047 0 0.025
v -0.047 0.05 0.025
v -0.099 0.05 0.025
v -0.105 0.385 -0.23
v -0.045 0.385 -0.23
v -0.075 0.338 -0.23
v -0.105 0.385 -0.218
v -0.075 0.338 -0.218
v -0.045 0.385 -0.218
v -0.105 0.515 -0.23
v -0.045 0.515 -0.23
v -0.075 0.468 -0.23
v -0.105 0.515 -0.218
v -0.075 0.468 -0.218
v -0.045 0.515 -0.218
v 0.068 0.725 -0.2645
v 0.2825 0.7855 -0.2645
v 0.222 0.725 -0.2645
v 0.068 0.725 -0.2295
v 0.222 0.725 -0.2295
v 0.2825 0.7855 -0.2295
v 0.2825 0.9545 -0.2645
v 0.2825 0.9545 -0.2295
v 0.222 1.015 -0.2645
v 0.222 1.015 -0.2295
v 0.068 1.015 -0.2645
v 0.068 1.015 -0.2295
v 0.0075 0.9545 -0.2645
v 0.0075 0.9545 -0.2295
v 0.0075 0.7855 -0.2645
v 0.0075 0.7855 -0.2295
v 0.0764 0.7375 -0.2825
v 0.2675 0.7914 -0.2825
v 0.2136 0.7375 -0.2825
v 0.0764 0.7375 -0.2575
v 0.2136 0.7375 -0.2575
v 0.2675 0.7914 -0.2575
v 0.2675 0.9386 -0.2825
v 0.2675 0.9386 -0.2575
v 0.2136 0.9925 -0.2825
v 0.2136 0.9925 -0.2575
v 0.0764 0.9925 -0.2825
v 0.0764 0.9925 -0.2575
v 0.0225 0.9386 -0.2825
v 0.0225 0.9386 -0.2575
v 0.0225 0.7914 -0.2825
v 0.0225 0.7914 -0.2575
v 0.103 0.79 -0.299
v 0.22 0.823 -0.299
v 0.187 0.79 -0.299
v 0.103 0.79 -0.281
v 0.187 0.79 -0.281
v 0.22 0.823 -0.281
v 0.22 0.927 -0.299
v 0.22 0.927 -0.281
v 0.187 0.96 -0.299
v 0.187 0.96 -0.281
v 0.103 0.96 -0.299
v 0.103 0.96 -0.281
v 0.07 0.927 -0.299
v 0.07 0.927 -0.281
v 0.07 0.823 -0.299
v 0.07 0.823 -0.281
v 0.111 0.8185 -0.313
v 0.179 0.9315 -0.313
v 0.179 0.8185 -0.313
v 0.111 0.9315 -0.313
v 0.111 0.8185 -0.297
v 0.179 0.8185 -0.297
v 0.179 0.9315 -0.297
v 0.111 0.9315 -0.297
v 0.1115 0.892 -0.325
v 0.1425 0.928 -0.325
v 0.1425 0.892 -0.325
v 0.1115 0.928 -0.325
v 0.1115 0.892 -0.313
v 0.1425 0.892 -0.313
v 0.1425 0.928 -0.313
v 0.1115 0.928 -0.313
v 0.125 1.04 -0.09
v 0.275 1.28 -0.09
v 0.285 1.04 -0.09
v 0.125 1.04 0.14
v 0.285 1.04 0.14
v 0.275 1.28 0.14
v 0.183 1.073 -0.104
v 0.255 1.203 -0.104
v 0.257 1.073 -0.104
v 0.183 1.073 -0.092
v 0.257 1.073 -0.092
v 0.255 1.203 -0.092
v 0.25935553 0.25722546 -0.125
v 0.36116441 0.29728955 -0.125
v 0.33457784 0.26477287 -0.125
v 0.25935553 0.25722546 0.195
v 0.33457784 0.26477287 0.195
v 0.36116441 0.29728955 0.195
v 0.32716115 0.63618796 -0.125
v 0.32716115 0.63618796 0.195
v 0.29464447 0.66277454 -0.125
v 0.29464447 0.66277454 0.195
v 0.21942216 0.65522713 -0.125
v 0.21942216 0.65522713 0.195
v 0.19283559 0.62271045 -0.125
v 0.19283559 0.62271045 0.195
v 0.22683885 0.28381204 -0.125
v 0.22683885 0.28381204 0.195
v 0.3275 0.37 -0.0925
v 0.3625 0.61 -0.0925
v 0.3625 0.37 -0.0925
v 0.3275 0.61 -0.0925
v 0.3275 0.37 0.0125
v 0.3625 0.37 0.0125
v 0.3625 0.61 0.0125
v 0.3275 0.61 0.0125
v 0.3275 0.345 0.0275
v 0.3625 0.535 0.0275
v 0.3625 0.345 0.0275
v 0.3275 0.535 0.0275
v 0.3275 0.345 0.1325
v 0.3625 0.345 0.1325
v 0.3625 0.535 0.1325
v 0.3275 0.535 0.1325
v 0.08 0.04 -0.03
v 0.15 0.14 -0.03
v 0.15 0.04 -0.03
v 0.08 0.14 -0.03
v 0.08 0.04 0.04
v 0.15 0.04 0.04
v 0.15 0.14 0.04
v 0.08 0.14 0.04
v 0.047 0 -0.135
v 0.099 0.05 -0.135
v 0.099 0 -0.135
v 0.047 0.05 -0.135
v 0.047 0 0.025
v 0.099 0 0.025
v 0.099 0.05 0.025
v 0.047 0.05 0.025
v 0.131 0 -0.135
v 0.183 0.05 -0.135
v 0.183 0 -0.135
v 0.131 0.05 -0.135
v 0.131 0 0.025
v 0.183 0 0.025
v 0.183 0.05 0.025
v 0.131 0.05 0.025
v 0.045 0.385 -0.23
v 0.105 0.385 -0.23
v 0.075 0.338 -0.23
v 0.045 0.385 -0.218
v 0.075 0.338 -0.218
v 0.105 0.385 -0.218
v 0.045 0.515 -0.23
v 0.105 0.515 -0.23
v 0.075 0.468 -0.23
v 0.045 0.515 -0.218
v 0.075 0.468 -0.218
v 0.105 0.515 -0.218
v -0.055 0.785 -0.286
v 0 0.765 -0.38
v 0 0.69 -0.286
v 0.055 0.785 -0.286
v 0 0.82 -0.286
v -0.11538601 0.13690717 0.16692333
v -0.030721034 0.21128405 0.14960506
v -0.025639012 0.14365085 0.16692333
v -0.12046803 0.20454038 0.14960506
v -0.11927897 0.18871595 0.37039494
v -0.029531972 0.19545962 0.37039494
v -0.034613995 0.26309283 0.35307667
v -0.12436099 0.25634915 0.35307667
v -0.045 0.14011065 0.16692333
v 0.045 0.20793452 0.14960506
v 0.045 0.14011065 0.16692333
v -0.045 0.20793452 0.14960506
v -0.045 0.19206548 0.37039494
v 0.045 0.19206548 0.37039494
v 0.045 0.25988935 0.35307667
v -0.045 0.25988935 0.35307667
v 0.025639012 0.14365085 0.16692333
v 0.12046803 0.20454038 0.14960506
v 0.11538601 0.13690717 0.16692333
v 0.030721034 0.21128405 0.14960506
v 0.029531972 0.19545962 0.37039494
v 0.11927897 0.18871595 0.37039494
v 0.12436099 0.25634915 0.35307667
v 0.034613995 0.26309283 0.35307667
vn 0 0 -1
vn 0 0 1
vn 0 -1 0
vn 0.70710678 -0.70710678 0
vn 1 0 0
vn 0.70710678 0.70710678 0
vn 0 1 0
vn -0.70710678 0.70710678 0
vn -1 0 0
vn -0.70710678 -0.70710678 0
vn 0.8479983 0.52999894 0
vn -0.99913307 0.04163054 0
vn 0.87479136 0.48449983 0
vn -0.99988168 0.0153828 0
vn -0.09983342 -0.99500417 0
vn 0.63298131 -0.77416708 0
vn 0.99500417 -0.09983342 0
vn 0.77416708 0.63298131 0
vn 0.09983342 0.99500417 0
vn -0.63298131 0.77416708 0
vn -0.99500417 0.09983342 0
vn -0.77416708 -0.63298131 0
vn -0.84292221 -0.53803545 0
vn 0.84292221 -0.53803545 0
vn 0.99913307 0.04163054 0
vn -0.8479983 0.52999894 0
vn 0.99988168 0.0153828 0
vn -0.87479136 0.48449983 0
vn 0.09983342 -0.99500417 0
vn 0.77416708 -0.63298131 0
vn 0.99500417 0.09983342 0
vn 0.63298131 0.77416708 0
vn -0.09983342 0.99500417 0
vn -0.77416708 0.63298131 0
vn -0.99500417 -0.09983342 0
vn -0.63298131 -0.77416708 0
vn -0.8035938 -0.46523851 -0.37120094
vn 0.8035938 -0.46523851 -0.37120094
vn 0.48141609 0.756511 -0.44263942
vn -0.48141609 0.756511 -0.44263942
vn 0.01853791 -0.24670846 -0.96891242
vn -0.01853791 0.24670846 0.96891242
vn 0.07260032 -0.96618863 0.24740396
vn -0.07260032 0.96618863 -0.24740396
vn -0.99718882 -0.07492971 0
vn 0.99718882 0.07492971 -0
vn 0 -0.24740396 -0.96891242
vn -0 0.24740396 0.96891242
vn 0 -0.96891242 0.24740396
vn 0 0.96891242 -0.24740396
vn -0.01853791 -0.24670846 -0.96891242
vn 0.01853791 0.24670846 0.96891242
vn -0.07260032 -0.96618863 0.24740396
vn 0.07260032 0.96618863 -0.24740396
vn -0.99718882 0.07492971 -0
vn 0.99718882 -0.07492971 0
usemtl owl_body
f 1//1 2//1 3//1
f 4//2 5//2 6//2
f 1//1 7//1 2//1
f 4//2 6//2 8//2
f 1//1 9//1 7//1
f 4//2 8//2 10//2
f 1//1 11//1 9//1
f 4//2 10//2 12//2
f 1//1 13//1 11//1
f 4//2 12//2 14//2
f 1//1 15//1 13//1
f 4//2 14//2 16//2
f 1//3 3//3 5//3
f 1//3 5//3 4//3
f 3//4 2//4 6//4
f 3//4 6//4 5//4
f 2//5 7//5 8//5
f 2//5 8//5 6//5
f 7//6 9//6 10//6
f 7//6 10//6 8//6
f 9//7 11//7 12//7
f 9//7 12//7 10//7
f 11//8 13//8 14//8
f 11//8 14//8 12//8
f 13//9 15//9 16//9
f 13//9 16//9 14//9
f 15//10 1//10 4//10
f 15//10 4//10 16//10
f 17//1 18//1 19//1
f 20//2 21//2 22//2
f 17//1 23//1 18//1
f 20//2 22//2 24//2
f 17//1 25//1 23//1
f 20//2 24//2 26//2
f 17//1 27//1 25//1
f 20//2 26//2 28//2
f 17//1 29//1 27//1
f 20//2 28//2 30//2
f 17//1 31//1 29//1
f 20//2 30//2 32//2
f 17//3 19//3 21//3
f 17//3 21//3 20//3
f 19//4 18//4 22//4
f 19//4 22//4 21//4
f 18//5 23//5 24//5
f 18//5 24//5 22//5
f 23//6 25//6 26//6
f 23//6 26//6 24//6
f 25//7 27//7 28//7
f 25//7 28//7 26//7
f 27//8 29//8 30//8
f 27//8 30//8 28//8
f 29//9 31//9 32//9
f 29//9 32//9 30//9
f 31//10 17//10 20//10
f 31//10 20//10 32//10
usemtl owl_face
f 33//1 34//1 35//1
f 36//2 37//2 38//2
f 33//1 39//1 34//1
f 36//2 38//2 40//2
f 33//1 41//1 39//1
f 36//2 40//2 42//2
f 33//1 43//1 41//1
f 36//2 42//2 44//2
f 33//1 45//1 43//1
f 36//2 44//2 46//2
f 33//1 47//1 45//1
f 36//2 46//2 48//2
f 33//3 35//3 37//3
f 33//3 37//3 36//3
f 35//4 34//4 38//4
f 35//4 38//4 37//4
f 34//5 39//5 40//5
f 34//5 40//5 38//5
f 39//6 41//6 42//6
f 39//6 42//6 40//6
f 41//7 43//7 44//7
f 41//7 44//7 42//7
f 43//8 45//8 46//8
f 43//8 46//8 44//8
f 45//9 47//9 48//9
f 45//9 48//9 46//9
f 47//10 33//10 36//10
f 47//10 36//10 48//10
usemtl owl_dark
f 49//1 50//1 51//1
f 52//2 53//2 54//2
f 49//1 55//1 50//1
f 52//2 54//2 56//2
f 49//1 57//1 55//1
f 52//2 56//2 58//2
f 49//1 59//1 57//1
f 52//2 58//2 60//2
f 49//1 61//1 59//1
f 52//2 60//2 62//2
f 49//1 63//1 61//1
f 52//2 62//2 64//2
f 49//3 51//3 53//3
f 49//3 53//3 52//3
f 51//4 50//4 54//4
f 51//4 54//4 53//4
f 50//5 55//5 56//5
f 50//5 56//5 54//5
f 55//6 57//6 58//6
f 55//6 58//6 56//6
f 57//7 59//7 60//7
f 57//7 60//7 58//7
f 59//8 61//8 62//8
f 59//8 62//8 60//8
f 61//9 63//9 64//9
f 61//9 64//9 62//9
f 63//10 49//10 52//10
f 63//10 52//10 64//10
usemtl owl_face
f 65//1 66//1 67//1
f 68//2 69//2 70//2
f 65//1 71//1 66//1
f 68//2 70//2 72//2
f 65//1 73//1 71//1
f 68//2 72//2 74//2
f 65//1 75//1 73//1
f 68//2 74//2 76//2
f 65//1 77//1 75//1
f 68//2 76//2 78//2
f 65//1 79//1 77//1
f 68//2 78//2 80//2
f 65//3 67//3 69//3
f 65//3 69//3 68//3
f 67//4 66//4 70//4
f 67//4 70//4 69//4
f 66//5 71//5 72//5
f 66//5 72//5 70//5
f 71//6 73//6 74//6
f 71//6 74//6 72//6
f 73//7 75//7 76//7
f 73//7 76//7 74//7
f 75//8 77//8 78//8
f 75//8 78//8 76//8
f 77//9 79//9 80//9
f 77//9 80//9 78//9
f 79//10 65//10 68//10
f 79//10 68//10 80//10
usemtl owl_eye
f 81//1 82//1 83//1
f 84//2 85//2 86//2
f 81//1 87//1 82//1
f 84//2 86//2 88//2
f 81//1 89//1 87//1
f 84//2 88//2 90//2
f 81//1 91//1 89//1
f 84//2 90//2 92//2
f 81//1 93//1 91//1
f 84//2 92//2 94//2
f 81//1 95//1 93//1
f 84//2 94//2 96//2
f 81//3 83//3 85//3
f 81//3 85//3 84//3
f 83//4 82//4 86//4
f 83//4 86//4 85//4
f 82//5 87//5 88//5
f 82//5 88//5 86//5
f 87//6 89//6 90//6
f 87//6 90//6 88//6
f 89//7 91//7 92//7
f 89//7 92//7 90//7
f 91//8 93//8 94//8
f 91//8 94//8 92//8
f 93//9 95//9 96//9
f 93//9 96//9 94//9
f 95//10 81//10 84//10
f 95//10 84//10 96//10
usemtl owl_pupil
f 97//1 98//1 99//1
f 97//1 100//1 98//1
f 101//2 102//2 103//2
f 101//2 103//2 104//2
f 97//3 99//3 102//3
f 97//3 102//3 101//3
f 100//7 104//7 103//7
f 100//7 103//7 98//7
f 97//9 101//9 104//9
f 97//9 104//9 100//9
f 99//5 98//5 103//5
f 99//5 103//5 102//5
usemtl owl_face
f 105//1 106//1 107//1
f 105//1 108//1 106//1
f 109//2 110//2 111//2
f 109//2 111//2 112//2
f 105//3 107//3 110//3
f 105//3 110//3 109//3
f 108//7 112//7 111//7
f 108//7 111//7 106//7
f 105//9 109//9 112//9
f 105//9 112//9 108//9
f 107//5 106//5 111//5
f 107//5 111//5 110//5
usemtl owl_mid
f 113//1 114//1 115//1
f 116//2 117//2 118//2
f 113//3 115//3 117//3
f 113//3 117//3 116//3
f 115//11 114//11 118//11
f 115//11 118//11 117//11
f 114//12 113//12 116//12
f 114//12 116//12 118//12
usemtl owl_body
f 119//1 120//1 121//1
f 122//2 123//2 124//2
f 119//3 121//3 123//3
f 119//3 123//3 122//3
f 121//13 120//13 124//13
f 121//13 124//13 123//13
f 120//14 119//14 122//14
f 120//14 122//14 124//14
usemtl owl_dark
f 125//1 126//1 127//1
f 128//2 129//2 130//2
f 125//1 131//1 126//1
f 128//2 130//2 132//2
f 125//1 133//1 131//1
f 128//2 132//2 134//2
f 125//1 135//1 133//1
f 128//2 134//2 136//2
f 125//1 137//1 135//1
f 128//2 136//2 138//2
f 125//1 139//1 137//1
f 128//2 138//2 140//2
f 125//15 127//15 129//15
f 125//15 129//15 128//15
f 127//16 126//16 130//16
f 127//16 130//16 129//16
f 126//17 131//17 132//17
f 126//17 132//17 130//17
f 131//18 133//18 134//18
f 131//18 134//18 132//18
f 133//19 135//19 136//19
f 133//19 136//19 134//19
f 135//20 137//20 138//20
f 135//20 138//20 136//20
f 137//21 139//21 140//21
f 137//21 140//21 138//21
f 139//22 125//22 128//22
f 139//22 128//22 140//22
usemtl owl_mid
f 141//1 142//1 143//1
f 141//1 144//1 142//1
f 145//2 146//2 147//2
f 145//2 147//2 148//2
f 141//3 143//3 146//3
f 141//3 146//3 145//3
f 144//7 148//7 147//7
f 144//7 147//7 142//7
f 141//9 145//9 148//9
f 141//9 148//9 144//9
f 143//5 142//5 147//5
f 143//5 147//5 146//5
f 149//1 150//1 151//1
f 149//1 152//1 150//1
f 153//2 154//2 155//2
f 153//2 155//2 156//2
f 149//3 151//3 154//3
f 149//3 154//3 153//3
f 152//7 156//7 155//7
f 152//7 155//7 150//7
f 149//9 153//9 156//9
f 149//9 156//9 152//9
f 151//5 150//5 155//5
f 151//5 155//5 154//5
usemtl owl_foot
f 157//1 158//1 159//1
f 157//1 160//1 158//1
f 161//2 162//2 163//2
f 161//2 163//2 164//2
f 157//3 159//3 162//3
f 157//3 162//3 161//3
f 160//7 164//7 163//7
f 160//7 163//7 158//7
f 157//9 161//9 164//9
f 157//9 164//9 160//9
f 159//5 158//5 163//5
f 159//5 163//5 162//5
usemtl owl_beak
f 165//1 166//1 167//1
f 165//1 168//1 166//1
f 169//2 170//2 171//2
f 169//2 171//2 172//2
f 165//3 167//3 170//3
f 165//3 170//3 169//3
f 168//7 172//7 171//7
f 168//7 171//7 166//7
f 165//9 169//9 172//9
f 165//9 172//9 168//9
f 167//5 166//5 171//5
f 167//5 171//5 170//5
f 173//1 174//1 175//1
f 173//1 176//1 174//1
f 177//2 178//2 179//2
f 177//2 179//2 180//2
f 173//3 175//3 178//3
f 173//3 178//3 177//3
f 176//7 180//7 179//7
f 176//7 179//7 174//7
f 173//9 177//9 180//9
f 173//9 180//9 176//9
f 175//5 174//5 179//5
f 175//5 179//5 178//5
usemtl owl_body
f 181//1 182//1 183//1
f 184//2 185//2 186//2
f 181//23 183//23 185//23
f 181//23 185//23 184//23
f 183//24 182//24 186//24
f 183//24 186//24 185//24
f 182//7 181//7 184//7
f 182//7 184//7 186//7
f 187//1 188//1 189//1
f 190//2 191//2 192//2
f 187//23 189//23 191//23
f 187//23 191//23 190//23
f 189//24 188//24 192//24
f 189//24 192//24 191//24
f 188//7 187//7 190//7
f 188//7 190//7 192//7
usemtl owl_dark
f 193//1 194//1 195//1
f 196//2 197//2 198//2
f 193//1 199//1 194//1
f 196//2 198//2 200//2
f 193//1 201//1 199//1
f 196//2 200//2 202//2
f 193//1 203//1 201//1
f 196//2 202//2 204//2
f 193//1 205//1 203//1
f 196//2 204//2 206//2
f 193//1 207//1 205//1
f 196//2 206//2 208//2
f 193//3 195//3 197//3
f 193//3 197//3 196//3
f 195//4 194//4 198//4
f 195//4 198//4 197//4
f 194//5 199//5 200//5
f 194//5 200//5 198//5
f 199//6 201//6 202//6
f 199//6 202//6 200//6
f 201//7 203//7 204//7
f 201//7 204//7 202//7
f 203//8 205//8 206//8
f 203//8 206//8 204//8
f 205//9 207//9 208//9
f 205//9 208//9 206//9
f 207//10 193//10 196//10
f 207//10 196//10 208//10
usemtl owl_face
f 209//1 210//1 211//1
f 212//2 213//2 214//2
f 209//1 215//1 210//1
f 212//2 214//2 216//2
f 209//1 217//1 215//1
f 212//2 216//2 218//2
f 209//1 219//1 217//1
f 212//2 218//2 220//2
f 209//1 221//1 219//1
f 212//2 220//2 222//2
f 209//1 223//1 221//1
f 212//2 222//2 224//2
f 209//3 211//3 213//3
f 209//3 213//3 212//3
f 211//4 210//4 214//4
f 211//4 214//4 213//4
f 210//5 215//5 216//5
f 210//5 216//5 214//5
f 215//6 217//6 218//6
f 215//6 218//6 216//6
f 217//7 219//7 220//7
f 217//7 220//7 218//7
f 219//8 221//8 222//8
f 219//8 222//8 220//8
f 221//9 223//9 224//9
f 221//9 224//9 222//9
f 223//10 209//10 212//10
f 223//10 212//10 224//10
usemtl owl_eye
f 225//1 226//1 227//1
f 228//2 229//2 230//2
f 225//1 231//1 226//1
f 228//2 230//2 232//2
f 225//1 233//1 231//1
f 228//2 232//2 234//2
f 225//1 235//1 233//1
f 228//2 234//2 236//2
f 225//1 237//1 235//1
f 228//2 236//2 238//2
f 225//1 239//1 237//1
f 228//2 238//2 240//2
f 225//3 227//3 229//3
f 225//3 229//3 228//3
f 227//4 226//4 230//4
f 227//4 230//4 229//4
f 226//5 231//5 232//5
f 226//5 232//5 230//5
f 231//6 233//6 234//6
f 231//6 234//6 232//6
f 233//7 235//7 236//7
f 233//7 236//7 234//7
f 235//8 237//8 238//8
f 235//8 238//8 236//8
f 237//9 239//9 240//9
f 237//9 240//9 238//9
f 239//10 225//10 228//10
f 239//10 228//10 240//10
usemtl owl_pupil
f 241//1 242//1 243//1
f 241//1 244//1 242//1
f 245//2 246//2 247//2
f 245//2 247//2 248//2
f 241//3 243//3 246//3
f 241//3 246//3 245//3
f 244//7 248//7 247//7
f 244//7 247//7 242//7
f 241//9 245//9 248//9
f 241//9 248//9 244//9
f 243//5 242//5 247//5
f 243//5 247//5 246//5
usemtl owl_face
f 249//1 250//1 251//1
f 249//1 252//1 250//1
f 253//2 254//2 255//2
f 253//2 255//2 256//2
f 249//3 251//3 254//3
f 249//3 254//3 253//3
f 252//7 256//7 255//7
f 252//7 255//7 250//7
f 249//9 253//9 256//9
f 249//9 256//9 252//9
f 251//5 250//5 255//5
f 251//5 255//5 254//5
usemtl owl_mid
f 257//1 258//1 259//1
f 260//2 261//2 262//2
f 257//3 259//3 261//3
f 257//3 261//3 260//3
f 259//25 258//25 262//25
f 259//25 262//25 261//25
f 258//26 257//26 260//26
f 258//26 260//26 262//26
usemtl owl_body
f 263//1 264//1 265//1
f 266//2 267//2 268//2
f 263//3 265//3 267//3
f 263//3 267//3 266//3
f 265//27 264//27 268//27
f 265//27 268//27 267//27
f 264//28 263//28 266//28
f 264//28 266//28 268//28
usemtl owl_dark
f 269//1 270//1 271//1
f 272//2 273//2 274//2
f 269//1 275//1 270//1
f 272//2 274//2 276//2
f 269//1 277//1 275//1
f 272//2 276//2 278//2
f 269//1 279//1 277//1
f 272//2 278//2 280//2
f 269//1 281//1 279//1
f 272//2 280//2 282//2
f 269//1 283//1 281//1
f 272//2 282//2 284//2
f 269//29 271//29 273//29
f 269//29 273//29 272//29
f 271//30 270//30 274//30
f 271//30 274//30 273//30
f 270//31 275//31 276//31
f 270//31 276//31 274//31
f 275//32 277//32 278//32
f 275//32 278//32 276//32
f 277//33 279//33 280//33
f 277//33 280//33 278//33
f 279//34 281//34 282//34
f 279//34 282//34 280//34
f 281//35 283//35 284//35
f 281//35 284//35 282//35
f 283//36 269//36 272//36
f 283//36 272//36 284//36
usemtl owl_mid
f 285//1 286//1 287//1
f 285//1 288//1 286//1
f 289//2 290//2 291//2
f 289//2 291//2 292//2
f 285//3 287//3 290//3
f 285//3 290//3 289//3
f 288//7 292//7 291//7
f 288//7 291//7 286//7
f 285//9 289//9 292//9
f 285//9 292//9 288//9
f 287//5 286//5 291//5
f 287//5 291//5 290//5
f 293//1 294//1 295//1
f 293//1 296//1 294//1
f 297//2 298//2 299//2
f 297//2 299//2 300//2
f 293//3 295//3 298//3
f 293//3 298//3 297//3
f 296//7 300//7 299//7
f 296//7 299//7 294//7
f 293//9 297//9 300//9
f 293//9 300//9 296//9
f 295//5 294//5 299//5
f 295//5 299//5 298//5
usemtl owl_foot
f 301//1 302//1 303//1
f 301//1 304//1 302//1
f 305//2 306//2 307//2
f 305//2 307//2 308//2
f 301//3 303//3 306//3
f 301//3 306//3 305//3
f 304//7 308//7 307//7
f 304//7 307//7 302//7
f 301//9 305//9 308//9
f 301//9 308//9 304//9
f 303//5 302//5 307//5
f 303//5 307//5 306//5
usemtl owl_beak
f 309//1 310//1 311//1
f 309//1 312//1 310//1
f 313//2 314//2 315//2
f 313//2 315//2 316//2
f 309//3 311//3 314//3
f 309//3 314//3 313//3
f 312//7 316//7 315//7
f 312//7 315//7 310//7
f 309//9 313//9 316//9
f 309//9 316//9 312//9
f 311//5 310//5 315//5
f 311//5 315//5 314//5
f 317//1 318//1 319//1
f 317//1 320//1 318//1
f 321//2 322//2 323//2
f 321//2 323//2 324//2
f 317//3 319//3 322//3
f 317//3 322//3 321//3
f 320//7 324//7 323//7
f 320//7 323//7 318//7
f 317//9 321//9 324//9
f 317//9 324//9 320//9
f 319//5 318//5 323//5
f 319//5 323//5 322//5
usemtl owl_body
f 325//1 326//1 327//1
f 328//2 329//2 330//2
f 325//23 327//23 329//23
f 325//23 329//23 328//23
f 327//24 326//24 330//24
f 327//24 330//24 329//24
f 326//7 325//7 328//7
f 326//7 328//7 330//7
f 331//1 332//1 333//1
f 334//2 335//2 336//2
f 331//23 333//23 335//23
f 331//23 335//23 334//23
f 333//24 332//24 336//24
f 333//24 336//24 335//24
f 332//7 331//7 334//7
f 332//7 334//7 336//7
usemtl owl_beak
f 337//37 338//37 339//37
f 339//38 338//38 340//38
f 340//39 338//39 341//39
f 341//40 338//40 337//40
f 337//2 340//2 341//2
f 337//2 339//2 340//2
usemtl owl_dark
f 342//41 343//41 344//41
f 342//41 345//41 343//41
f 346//42 347//42 348//42
f 346//42 348//42 349//42
f 342//43 344//43 347//43
f 342//43 347//43 346//43
f 345//44 349//44 348//44
f 345//44 348//44 343//44
f 342//45 346//45 349//45
f 342//45 349//45 345//45
f 344//46 343//46 348//46
f 344//46 348//46 347//46
usemtl owl_mid
f 350//47 351//47 352//47
f 350//47 353//47 351//47
f 354//48 355//48 356//48
f 354//48 356//48 357//48
f 350//49 352//49 355//49
f 350//49 355//49 354//49
f 353//50 357//50 356//50
f 353//50 356//50 351//50
f 350//9 354//9 357//9
f 350//9 357//9 353//9
f 352//5 351//5 356//5
f 352//5 356//5 355//5
usemtl owl_dark
f 358//51 359//51 360//51
f 358//51 361//51 359//51
f 362//52 363//52 364//52
f 362//52 364//52 365//52
f 358//53 360//53 363//53
f 358//53 363//53 362//53
f 361//54 365//54 364//54
f 361//54 364//54 359//54
f 358//55 362//55 365//55
f 358//55 365//55 361//55
f 360//56 359//56 364//56
f 360//56 364//56 363//56
