# Generated for AthenaENV Model3D.load
mtllib rail.mtl
v -4.5 0 -0.5
v 4.5 0.04 -0.5
v 4.5 0 -0.5
v -4.5 0.04 -0.5
v -4.5 0 0.5
v 4.5 0 0.5
v 4.5 0.04 0.5
v -4.5 0.04 0.5
v -16 0 -0.5
v -16 0.04 -0.5
v -16 0 0.5
v -16 0.04 0.5
v 16 0.04 -0.5
v 16 0 -0.5
v 16 0 0.5
v 16 0.04 0.5
v -16 -0.13 0.5
v 16 -0.13 0.5
v -15.72 0.045 -0.39
v -15.72 0.045 0.39
v -15.48 0.045 0.39
v -15.48 0.045 -0.39
v -14.92 0.045 -0.39
v -14.92 0.045 0.39
v -14.68 0.045 0.39
v -14.68 0.045 -0.39
v -14.12 0.045 -0.39
v -14.12 0.045 0.39
v -13.88 0.045 0.39
v -13.88 0.045 -0.39
v -13.32 0.045 -0.39
v -13.32 0.045 0.39
v -13.08 0.045 0.39
v -13.08 0.045 -0.39
v -12.52 0.045 -0.39
v -12.52 0.045 0.39
v -12.28 0.045 0.39
v -12.28 0.045 -0.39
v -11.72 0.045 -0.39
v -11.72 0.045 0.39
v -11.48 0.045 0.39
v -11.48 0.045 -0.39
v -10.92 0.045 -0.39
v -10.92 0.045 0.39
v -10.68 0.045 0.39
v -10.68 0.045 -0.39
v -10.12 0.045 -0.39
v -10.12 0.045 0.39
v -9.88 0.045 0.39
v -9.88 0.045 -0.39
v -9.32 0.045 -0.39
v -9.32 0.045 0.39
v -9.08 0.045 0.39
v -9.08 0.045 -0.39
v -8.52 0.045 -0.39
v -8.52 0.045 0.39
v -8.28 0.045 0.39
v -8.28 0.045 -0.39
v -7.72 0.045 -0.39
v -7.72 0.045 0.39
v -7.48 0.045 0.39
v -7.48 0.045 -0.39
v -6.92 0.045 -0.39
v -6.92 0.045 0.39
v -6.68 0.045 0.39
v -6.68 0.045 -0.39
v -6.12 0.045 -0.39
v -6.12 0.045 0.39
v -5.88 0.045 0.39
v -5.88 0.045 -0.39
v -5.32 0.045 -0.39
v -5.32 0.045 0.39
v -5.08 0.045 0.39
v -5.08 0.045 -0.39
v -4.52 0.045 -0.39
v -4.52 0.045 0.39
v -4.28 0.045 0.39
v -4.28 0.045 -0.39
v -3.72 0.045 -0.39
v -3.72 0.045 0.39
v -3.48 0.045 0.39
v -3.48 0.045 -0.39
v -2.92 0.045 -0.39
v -2.92 0.045 0.39
v -2.68 0.045 0.39
v -2.68 0.045 -0.39
v -2.12 0.045 -0.39
v -2.12 0.045 0.39
v -1.88 0.045 0.39
v -1.88 0.045 -0.39
v -1.32 0.045 -0.39
v -1.32 0.045 0.39
v -1.08 0.045 0.39
v -1.08 0.045 -0.39
v -0.52 0.045 -0.39
v -0.52 0.045 0.39
v -0.28 0.045 0.39
v -0.28 0.045 -0.39
v 0.28 0.045 -0.39
v 0.28 0.045 0.39
v 0.52 0.045 0.39
v 0.52 0.045 -0.39
v 1.08 0.045 -0.39
v 1.08 0.045 0.39
v 1.32 0.045 0.39
v 1.32 0.045 -0.39
v 1.88 0.045 -0.39
v 1.88 0.045 0.39
v 2.12 0.045 0.39
v 2.12 0.045 -0.39
v 2.68 0.045 -0.39
v 2.68 0.045 0.39
v 2.92 0.045 0.39
v 2.92 0.045 -0.39
v 3.48 0.045 -0.39
v 3.48 0.045 0.39
v 3.72 0.045 0.39
v 3.72 0.045 -0.39
v 4.28 0.045 -0.39
v 4.28 0.045 0.39
v 4.52 0.045 0.39
v 4.52 0.045 -0.39
v 5.08 0.045 -0.39
v 5.08 0.045 0.39
v 5.32 0.045 0.39
v 5.32 0.045 -0.39
v 5.88 0.045 -0.39
v 5.88 0.045 0.39
v 6.12 0.045 0.39
v 6.12 0.045 -0.39
v 6.68 0.045 -0.39
v 6.68 0.045 0.39
v 6.92 0.045 0.39
v 6.92 0.045 -0.39
v 7.48 0.045 -0.39
v 7.48 0.045 0.39
v 7.72 0.045 0.39
v 7.72 0.045 -0.39
v 8.28 0.045 -0.39
v 8.28 0.045 0.39
v 8.52 0.045 0.39
v 8.52 0.045 -0.39
v 9.08 0.045 -0.39
v 9.08 0.045 0.39
v 9.32 0.045 0.39
v 9.32 0.045 -0.39
v 9.88 0.045 -0.39
v 9.88 0.045 0.39
v 10.12 0.045 0.39
v 10.12 0.045 -0.39
v 10.68 0.045 -0.39
v 10.68 0.045 0.39
v 10.92 0.045 0.39
v 10.92 0.045 -0.39
v 11.48 0.045 -0.39
v 11.48 0.045 0.39
v 11.72 0.045 0.39
v 11.72 0.045 -0.39
v 12.28 0.045 -0.39
v 12.28 0.045 0.39
v 12.52 0.045 0.39
v 12.52 0.045 -0.39
v 13.08 0.045 -0.39
v 13.08 0.045 0.39
v 13.32 0.045 0.39
v 13.32 0.045 -0.39
v 13.88 0.045 -0.39
v 13.88 0.045 0.39
v 14.12 0.045 0.39
v 14.12 0.045 -0.39
v 14.68 0.045 -0.39
v 14.68 0.045 0.39
v 14.92 0.045 0.39
v 14.92 0.045 -0.39
v 15.48 0.045 -0.39
v 15.48 0.045 0.39
v 15.72 0.045 0.39
v 15.72 0.045 -0.39
v -16 0.045 -0.275
v 16 0.095 -0.275
v 16 0.045 -0.275
v -16 0.095 -0.275
v -16 0.045 -0.205
v 16 0.045 -0.205
v 16 0.095 -0.205
v -16 0.095 -0.205
v -16 0.045 0.205
v 16 0.095 0.205
v 16 0.045 0.205
v -16 0.095 0.205
v -16 0.045 0.275
v 16 0.045 0.275
v 16 0.095 0.275
v -16 0.095 0.275
vn 0 0 -1
vn 0 0 1
vn 0 -1 0
vn 0 1 0
vn -1 0 0
vn 1 0 0
usemtl gravel
f 1//1 2//1 3//1
f 1//1 4//1 2//1
f 5//2 6//2 7//2
f 5//2 7//2 8//2
f 1//3 3//3 6//3
f 1//3 6//3 5//3
f 4//4 8//4 7//4
f 4//4 7//4 2//4
f 1//5 5//5 8//5
f 1//5 8//5 4//5
f 3//6 2//6 7//6
f 3//6 7//6 6//6
usemtl gravel_out
f 9//1 4//1 1//1
f 9//1 10//1 4//1
f 11//2 5//2 8//2
f 11//2 8//2 12//2
f 9//3 1//3 5//3
f 9//3 5//3 11//3
f 10//4 12//4 8//4
f 10//4 8//4 4//4
f 9//5 11//5 12//5
f 9//5 12//5 10//5
f 1//6 4//6 8//6
f 1//6 8//6 5//6
f 3//1 13//1 14//1
f 3//1 2//1 13//1
f 6//2 15//2 16//2
f 6//2 16//2 7//2
f 3//3 14//3 15//3
f 3//3 15//3 6//3
f 2//4 7//4 16//4
f 2//4 16//4 13//4
f 3//5 6//5 7//5
f 3//5 7//5 2//5
f 14//6 13//6 16//6
f 14//6 16//6 15//6
usemtl earth
f 17//2 18//2 15//2
f 17//2 15//2 11//2
usemtl sleeper
f 19//4 20//4 21//4
f 19//4 21//4 22//4
f 23//4 24//4 25//4
f 23//4 25//4 26//4
f 27//4 28//4 29//4
f 27//4 29//4 30//4
f 31//4 32//4 33//4
f 31//4 33//4 34//4
f 35//4 36//4 37//4
f 35//4 37//4 38//4
f 39//4 40//4 41//4
f 39//4 41//4 42//4
f 43//4 44//4 45//4
f 43//4 45//4 46//4
f 47//4 48//4 49//4
f 47//4 49//4 50//4
f 51//4 52//4 53//4
f 51//4 53//4 54//4
f 55//4 56//4 57//4
f 55//4 57//4 58//4
f 59//4 60//4 61//4
f 59//4 61//4 62//4
f 63//4 64//4 65//4
f 63//4 65//4 66//4
f 67//4 68//4 69//4
f 67//4 69//4 70//4
f 71//4 72//4 73//4
f 71//4 73//4 74//4
f 75//4 76//4 77//4
f 75//4 77//4 78//4
f 79//4 80//4 81//4
f 79//4 81//4 82//4
f 83//4 84//4 85//4
f 83//4 85//4 86//4
f 87//4 88//4 89//4
f 87//4 89//4 90//4
f 91//4 92//4 93//4
f 91//4 93//4 94//4
f 95//4 96//4 97//4
f 95//4 97//4 98//4
f 99//4 100//4 101//4
f 99//4 101//4 102//4
f 103//4 104//4 105//4
f 103//4 105//4 106//4
f 107//4 108//4 109//4
f 107//4 109//4 110//4
f 111//4 112//4 113//4
f 111//4 113//4 114//4
f 115//4 116//4 117//4
f 115//4 117//4 118//4
f 119//4 120//4 121//4
f 119//4 121//4 122//4
f 123//4 124//4 125//4
f 123//4 125//4 126//4
f 127//4 128//4 129//4
f 127//4 129//4 130//4
f 131//4 132//4 133//4
f 131//4 133//4 134//4
f 135//4 136//4 137//4
f 135//4 137//4 138//4
f 139//4 140//4 141//4
f 139//4 141//4 142//4
f 143//4 144//4 145//4
f 143//4 145//4 146//4
f 147//4 148//4 149//4
f 147//4 149//4 150//4
f 151//4 152//4 153//4
f 151//4 153//4 154//4
f 155//4 156//4 157//4
f 155//4 157//4 158//4
f 159//4 160//4 161//4
f 159//4 161//4 162//4
f 163//4 164//4 165//4
f 163//4 165//4 166//4
f 167//4 168//4 169//4
f 167//4 169//4 170//4
f 171//4 172//4 173//4
f 171//4 173//4 174//4
f 175//4 176//4 177//4
f 175//4 177//4 178//4
usemtl rail
f 179//1 180//1 181//1
f 179//1 182//1 180//1
f 183//2 184//2 185//2
f 183//2 185//2 186//2
f 179//3 181//3 184//3
f 179//3 184//3 183//3
f 182//4 186//4 185//4
f 182//4 185//4 180//4
f 179//5 183//5 186//5
f 179//5 186//5 182//5
f 181//6 180//6 185//6
f 181//6 185//6 184//6
f 187//1 188//1 189//1
f 187//1 190//1 188//1
f 191//2 192//2 193//2
f 191//2 193//2 194//2
f 187//3 189//3 192//3
f 187//3 192//3 191//3
f 190//4 194//4 193//4
f 190//4 193//4 188//4
f 187//5 191//5 194//5
f 187//5 194//5 190//5
f 189//6 188//6 193//6
f 189//6 193//6 192//6
