# Generated for AthenaENV Model3D.load
mtllib ripple.mtl
v -18.440482 -0.114 0.013036118
v -18.440482 -0.114 0.073036118
v -17.940482 -0.114 0.073036118
v -17.940482 -0.114 0.013036118
v -18.367671 -0.114 0.22563286
v -18.367671 -0.114 0.28563286
v -18.017671 -0.114 0.28563286
v -18.017671 -0.114 0.22563286
v -14.440482 -0.114 0.013036118
v -14.440482 -0.114 0.073036118
v -13.940482 -0.114 0.073036118
v -13.940482 -0.114 0.013036118
v -14.367671 -0.114 0.22563286
v -14.367671 -0.114 0.28563286
v -14.017671 -0.114 0.28563286
v -14.017671 -0.114 0.22563286
v -10.440482 -0.114 0.013036118
v -10.440482 -0.114 0.073036118
v -9.9404818 -0.114 0.073036118
v -9.9404818 -0.114 0.013036118
v -10.367671 -0.114 0.22563286
v -10.367671 -0.114 0.28563286
v -10.017671 -0.114 0.28563286
v -10.017671 -0.114 0.22563286
v -6.4404818 -0.114 0.013036118
v -6.4404818 -0.114 0.073036118
v -5.9404818 -0.114 0.073036118
v -5.9404818 -0.114 0.013036118
v -6.3676707 -0.114 0.22563286
v -6.3676707 -0.114 0.28563286
v -6.0176707 -0.114 0.28563286
v -6.0176707 -0.114 0.22563286
v -2.4404818 -0.114 0.013036118
v -2.4404818 -0.114 0.073036118
v -1.9404818 -0.114 0.073036118
v -1.9404818 -0.114 0.013036118
v -2.3676707 -0.114 0.22563286
v -2.3676707 -0.114 0.28563286
v -2.0176707 -0.114 0.28563286
v -2.0176707 -0.114 0.22563286
v 1.5595182 -0.114 0.013036118
v 1.5595182 -0.114 0.073036118
v 2.0595182 -0.114 0.073036118
v 2.0595182 -0.114 0.013036118
v 1.6323293 -0.114 0.22563286
v 1.6323293 -0.114 0.28563286
v 1.9823293 -0.114 0.28563286
v 1.9823293 -0.114 0.22563286
v 5.5595182 -0.114 0.013036118
v 5.5595182 -0.114 0.073036118
v 6.0595182 -0.114 0.073036118
v 6.0595182 -0.114 0.013036118
v 5.6323293 -0.114 0.22563286
v 5.6323293 -0.114 0.28563286
v 5.9823293 -0.114 0.28563286
v 5.9823293 -0.114 0.22563286
v 9.5595182 -0.114 0.013036118
v 9.5595182 -0.114 0.073036118
v 10.059518 -0.114 0.073036118
v 10.059518 -0.114 0.013036118
v 9.6323293 -0.114 0.22563286
v 9.6323293 -0.114 0.28563286
v 9.9823293 -0.114 0.28563286
v 9.9823293 -0.114 0.22563286
v 13.559518 -0.114 0.013036118
v 13.559518 -0.114 0.073036118
v 14.059518 -0.114 0.073036118
v 14.059518 -0.114 0.013036118
v 13.632329 -0.114 0.22563286
v 13.632329 -0.114 0.28563286
v 13.982329 -0.114 0.28563286
v 13.982329 -0.114 0.22563286
v 17.559518 -0.114 0.013036118
v 17.559518 -0.114 0.073036118
v 18.059518 -0.114 0.073036118
v 18.059518 -0.114 0.013036118
v 17.632329 -0.114 0.22563286
v 17.632329 -0.114 0.28563286
v 17.982329 -0.114 0.28563286
v 17.982329 -0.114 0.22563286
vn 0 1 0
usemtl ripple
f 1//1 2//1 3//1
f 1//1 3//1 4//1
f 5//1 6//1 7//1
f 5//1 7//1 8//1
f 9//1 10//1 11//1
f 9//1 11//1 12//1
f 13//1 14//1 15//1
f 13//1 15//1 16//1
f 17//1 18//1 19//1
f 17//1 19//1 20//1
f 21//1 22//1 23//1
f 21//1 23//1 24//1
f 25//1 26//1 27//1
f 25//1 27//1 28//1
f 29//1 30//1 31//1
f 29//1 31//1 32//1
f 33//1 34//1 35//1
f 33//1 35//1 36//1
f 37//1 38//1 39//1
f 37//1 39//1 40//1
f 41//1 42//1 43//1
f 41//1 43//1 44//1
f 45//1 46//1 47//1
f 45//1 47//1 48//1
f 49//1 50//1 51//1
f 49//1 51//1 52//1
f 53//1 54//1 55//1
f 53//1 55//1 56//1
f 57//1 58//1 59//1
f 57//1 59//1 60//1
f 61//1 62//1 63//1
f 61//1 63//1 64//1
f 65//1 66//1 67//1
f 65//1 67//1 68//1
f 69//1 70//1 71//1
f 69//1 71//1 72//1
f 73//1 74//1 75//1
f 73//1 75//1 76//1
f 77//1 78//1 79//1
f 77//1 79//1 80//1
