# Generated for AthenaENV Model3D.load
mtllib road_marked.mtl
v -4.5 0 -0.5
v -4.5 0 0.5
v 4.5 0 0.5
v 4.5 0 -0.5
v -16 0 -0.5
v -16 0 0.5
v 16 0 0.5
v 16 0 -0.5
v -16 -0.132 0.5
v 16 -0.132 0.5
v 16 -0.002 0.5
v -16 -0.002 0.5
v -15.3 0.025 -0.4975
v -15.3 0.025 -0.4425
v -14.7 0.025 -0.4425
v -14.7 0.025 -0.4975
v -13.3 0.025 -0.4975
v -13.3 0.025 -0.4425
v -12.7 0.025 -0.4425
v -12.7 0.025 -0.4975
v -11.3 0.025 -0.4975
v -11.3 0.025 -0.4425
v -10.7 0.025 -0.4425
v -10.7 0.025 -0.4975
v -9.3 0.025 -0.4975
v -9.3 0.025 -0.4425
v -8.7 0.025 -0.4425
v -8.7 0.025 -0.4975
v -7.3 0.025 -0.4975
v -7.3 0.025 -0.4425
v -6.7 0.025 -0.4425
v -6.7 0.025 -0.4975
v -5.3 0.025 -0.4975
v -5.3 0.025 -0.4425
v -4.7 0.025 -0.4425
v -4.7 0.025 -0.4975
v -3.3 0.025 -0.4975
v -3.3 0.025 -0.4425
v -2.7 0.025 -0.4425
v -2.7 0.025 -0.4975
v -1.3 0.025 -0.4975
v -1.3 0.025 -0.4425
v -0.7 0.025 -0.4425
v -0.7 0.025 -0.4975
v 0.7 0.025 -0.4975
v 0.7 0.025 -0.4425
v 1.3 0.025 -0.4425
v 1.3 0.025 -0.4975
v 2.7 0.025 -0.4975
v 2.7 0.025 -0.4425
v 3.3 0.025 -0.4425
v 3.3 0.025 -0.4975
v 4.7 0.025 -0.4975
v 4.7 0.025 -0.4425
v 5.3 0.025 -0.4425
v 5.3 0.025 -0.4975
v 6.7 0.025 -0.4975
v 6.7 0.025 -0.4425
v 7.3 0.025 -0.4425
v 7.3 0.025 -0.4975
v 8.7 0.025 -0.4975
v 8.7 0.025 -0.4425
v 9.3 0.025 -0.4425
v 9.3 0.025 -0.4975
v 10.7 0.025 -0.4975
v 10.7 0.025 -0.4425
v 11.3 0.025 -0.4425
v 11.3 0.025 -0.4975
v 12.7 0.025 -0.4975
v 12.7 0.025 -0.4425
v 13.3 0.025 -0.4425
v 13.3 0.025 -0.4975
v 14.7 0.025 -0.4975
v 14.7 0.025 -0.4425
v 15.3 0.025 -0.4425
v 15.3 0.025 -0.4975
vn 0 1 0
vn 0 0 1
usemtl asphalt
f 1//1 2//1 3//1
f 1//1 3//1 4//1
usemtl asphalt_out
f 5//1 6//1 2//1
f 5//1 2//1 1//1
f 4//1 3//1 7//1
f 4//1 7//1 8//1
usemtl earth
f 9//2 10//2 11//2
f 9//2 11//2 12//2
usemtl lane_dashes
f 13//1 14//1 15//1
f 13//1 15//1 16//1
f 17//1 18//1 19//1
f 17//1 19//1 20//1
f 21//1 22//1 23//1
f 21//1 23//1 24//1
f 25//1 26//1 27//1
f 25//1 27//1 28//1
f 29//1 30//1 31//1
f 29//1 31//1 32//1
f 33//1 34//1 35//1
f 33//1 35//1 36//1
f 37//1 38//1 39//1
f 37//1 39//1 40//1
f 41//1 42//1 43//1
f 41//1 43//1 44//1
f 45//1 46//1 47//1
f 45//1 47//1 48//1
f 49//1 50//1 51//1
f 49//1 51//1 52//1
f 53//1 54//1 55//1
f 53//1 55//1 56//1
f 57//1 58//1 59//1
f 57//1 59//1 60//1
f 61//1 62//1 63//1
f 61//1 63//1 64//1
f 65//1 66//1 67//1
f 65//1 67//1 68//1
f 69//1 70//1 71//1
f 69//1 71//1 72//1
f 73//1 74//1 75//1
f 73//1 75//1 76//1
