# Generated for AthenaENV Model3D.load
mtllib rock.mtl
v -0.28 0.025 -0.32
v -0.28 0.025 0.48
v 0.52 0.025 0.48
v 0.52 0.025 -0.32
v -0.365 0 -0.35
v 0.365 0.23 -0.35
v 0.365 0 -0.35
v -0.365 0.23 -0.35
v -0.365 0 0.35
v 0.365 0 0.35
v 0.365 0.23 0.35
v -0.365 0.23 0.35
v -0.275 0.23 -0.26
v 0.275 0.39 -0.26
v 0.275 0.23 -0.26
v -0.275 0.39 -0.26
v -0.275 0.23 0.26
v 0.275 0.23 0.26
v 0.275 0.39 0.26
v -0.275 0.39 0.26
v -0.185 0.39 -0.175
v 0.185 0.49 -0.175
v 0.185 0.39 -0.175
v -0.185 0.49 -0.175
v -0.185 0.39 0.175
v 0.185 0.39 0.175
v 0.185 0.49 0.175
v -0.185 0.49 0.175
vn 0 1 0
vn 0 0 -1
vn 0 0 1
vn 0 -1 0
vn -1 0 0
vn 1 0 0
usemtl shadow
f 1//1 2//1 3//1
f 1//1 3//1 4//1
usemtl stone
f 5//2 6//2 7//2
f 5//2 8//2 6//2
f 9//3 10//3 11//3
f 9//3 11//3 12//3
f 5//4 7//4 10//4
f 5//4 10//4 9//4
f 8//1 12//1 11//1
f 8//1 11//1 6//1
f 5//5 9//5 12//5
f 5//5 12//5 8//5
f 7//6 6//6 11//6
f 7//6 11//6 10//6
f 13//2 14//2 15//2
f 13//2 16//2 14//2
f 17//3 18//3 19//3
f 17//3 19//3 20//3
f 13//4 15//4 18//4
f 13//4 18//4 17//4
f 16//1 20//1 19//1
f 16//1 19//1 14//1
f 13//5 17//5 20//5
f 13//5 20//5 16//5
f 15//6 14//6 19//6
f 15//6 19//6 18//6
f 21//2 22//2 23//2
f 21//2 24//2 22//2
f 25//3 26//3 27//3
f 25//3 27//3 28//3
f 21//4 23//4 26//4
f 21//4 26//4 25//4
f 24//1 28//1 27//1
f 24//1 27//1 22//1
f 21//5 25//5 28//5
f 21//5 28//5 24//5
f 23//6 22//6 27//6
f 23//6 27//6 26//6
