# Generated for AthenaENV Model3D.load
mtllib signal_light.mtl
v -0.145 1.275 0.065
v -0.035 1.385 0.065
v -0.035 1.275 0.065
v -0.145 1.385 0.065
v -0.145 1.275 0.095
v -0.035 1.275 0.095
v -0.035 1.385 0.095
v -0.145 1.385 0.095
v 0.035 1.275 0.065
v 0.145 1.385 0.065
v 0.145 1.275 0.065
v 0.035 1.385 0.065
v 0.035 1.275 0.095
v 0.145 1.275 0.095
v 0.145 1.385 0.095
v 0.035 1.385 0.095
vn 0 0 -1
vn 0 0 1
vn 0 -1 0
vn 0 1 0
vn -1 0 0
vn 1 0 0
usemtl signal_on
f 1//1 2//1 3//1
f 1//1 4//1 2//1
f 5//2 6//2 7//2
f 5//2 7//2 8//2
f 1//3 3//3 6//3
f 1//3 6//3 5//3
f 4//4 8//4 7//4
f 4//4 7//4 2//4
f 1//5 5//5 8//5
f 1//5 8//5 4//5
f 3//6 2//6 7//6
f 3//6 7//6 6//6
f 9//1 10//1 11//1
f 9//1 12//1 10//1
f 13//2 14//2 15//2
f 13//2 15//2 16//2
f 9//3 11//3 14//3
f 9//3 14//3 13//3
f 12//4 16//4 15//4
f 12//4 15//4 10//4
f 9//5 13//5 16//5
f 9//5 16//5 12//5
f 11//6 10//6 15//6
f 11//6 15//6 14//6
