# Generated for AthenaENV Model3D.load
mtllib signal.mtl
v -0.045 0 -0.045
v 0.045 0.24 -0.045
v 0.045 0 -0.045
v -0.045 0.24 -0.045
v -0.045 0 0.045
v 0.045 0 0.045
v 0.045 0.24 0.045
v -0.045 0.24 0.045
v 0.045 0.48 -0.045
v -0.045 0.48 -0.045
v 0.045 0.48 0.045
v -0.045 0.48 0.045
v 0.045 0.72 -0.045
v -0.045 0.72 -0.045
v 0.045 0.72 0.045
v -0.045 0.72 0.045
v 0.045 0.96 -0.045
v -0.045 0.96 -0.045
v 0.045 0.96 0.045
v -0.045 0.96 0.045
v -0.045 0.96 -0.045
v 0.045 1.2 -0.045
v 0.045 0.96 -0.045
v -0.045 1.2 -0.045
v -0.045 0.96 0.045
v 0.045 0.96 0.045
v 0.045 1.2 0.045
v -0.045 1.2 0.045
v -0.18 1.22 -0.06
v 0.18 1.44 -0.06
v 0.18 1.22 -0.06
v -0.18 1.44 -0.06
v -0.18 1.22 0.06
v 0.18 1.22 0.06
v 0.18 1.44 0.06
v -0.18 1.44 0.06
v -0.14 1.28 0.055
v -0.04 1.38 0.055
v -0.04 1.28 0.055
v -0.14 1.38 0.055
v -0.14 1.28 0.075
v -0.04 1.28 0.075
v -0.04 1.38 0.075
v -0.14 1.38 0.075
v 0.04 1.28 0.055
v 0.14 1.38 0.055
v 0.14 1.28 0.055
v 0.04 1.38 0.055
v 0.04 1.28 0.075
v 0.14 1.28 0.075
v 0.14 1.38 0.075
v 0.04 1.38 0.075
vn 0 0 -1
vn 0 0 1
vn 0 -1 0
vn 0 1 0
vn -1 0 0
vn 1 0 0
usemtl pole_red
f 1//1 2//1 3//1
f 1//1 4//1 2//1
f 5//2 6//2 7//2
f 5//2 7//2 8//2
f 1//3 3//3 6//3
f 1//3 6//3 5//3
f 4//4 8//4 7//4
f 4//4 7//4 2//4
f 1//5 5//5 8//5
f 1//5 8//5 4//5
f 3//6 2//6 7//6
f 3//6 7//6 6//6
usemtl pole_white
f 4//1 9//1 2//1
f 4//1 10//1 9//1
f 8//2 7//2 11//2
f 8//2 11//2 12//2
f 4//3 2//3 7//3
f 4//3 7//3 8//3
f 10//4 12//4 11//4
f 10//4 11//4 9//4
f 4//5 8//5 12//5
f 4//5 12//5 10//5
f 2//6 9//6 11//6
f 2//6 11//6 7//6
usemtl pole_red
f 10//1 13//1 9//1
f 10//1 14//1 13//1
f 12//2 11//2 15//2
f 12//2 15//2 16//2
f 10//3 9//3 11//3
f 10//3 11//3 12//3
f 14//4 16//4 15//4
f 14//4 15//4 13//4
f 10//5 12//5 16//5
f 10//5 16//5 14//5
f 9//6 13//6 15//6
f 9//6 15//6 11//6
usemtl pole_white
f 14//1 17//1 13//1
f 14//1 18//1 17//1
f 16//2 15//2 19//2
f 16//2 19//2 20//2
f 14//3 13//3 15//3
f 14//3 15//3 16//3
f 18//4 20//4 19//4
f 18//4 19//4 17//4
f 14//5 16//5 20//5
f 14//5 20//5 18//5
f 13//6 17//6 19//6
f 13//6 19//6 15//6
usemtl pole_red
f 21//1 22//1 23//1
f 21//1 24//1 22//1
f 25//2 26//2 27//2
f 25//2 27//2 28//2
f 21//3 23//3 26//3
f 21//3 26//3 25//3
f 24//4 28//4 27//4
f 24//4 27//4 22//4
f 21//5 25//5 28//5
f 21//5 28//5 24//5
f 23//6 22//6 27//6
f 23//6 27//6 26//6
usemtl signal_head
f 29//1 30//1 31//1
f 29//1 32//1 30//1
f 33//2 34//2 35//2
f 33//2 35//2 36//2
f 29//3 31//3 34//3
f 29//3 34//3 33//3
f 32//4 36//4 35//4
f 32//4 35//4 30//4
f 29//5 33//5 36//5
f 29//5 36//5 32//5
f 31//6 30//6 35//6
f 31//6 35//6 34//6
usemtl signal_off
f 37//1 38//1 39//1
f 37//1 40//1 38//1
f 41//2 42//2 43//2
f 41//2 43//2 44//2
f 37//3 39//3 42//3
f 37//3 42//3 41//3
f 40//4 44//4 43//4
f 40//4 43//4 38//4
f 37//5 41//5 44//5
f 37//5 44//5 40//5
f 39//6 38//6 43//6
f 39//6 43//6 42//6
f 45//1 46//1 47//1
f 45//1 48//1 46//1
f 49//2 50//2 51//2
f 49//2 51//2 52//2
f 45//3 47//3 50//3
f 45//3 50//3 49//3
f 48//4 52//4 51//4
f 48//4 51//4 46//4
f 45//5 49//5 52//5
f 45//5 52//5 48//5
f 47//6 46//6 51//6
f 47//6 51//6 50//6
