# Generated for AthenaENV Model3D.load
mtllib train_wagon.mtl
v -1.18 0.23 -0.42
v 1.18 1.13 -0.42
v 1.18 0.23 -0.42
v -1.18 1.13 -0.42
v -1.18 0.23 0.42
v 1.18 0.23 0.42
v 1.18 1.13 0.42
v -1.18 1.13 0.42
v -1.2 1.13 -0.44
v 1.2 1.21 -0.44
v 1.2 1.13 -0.44
v -1.2 1.21 -0.44
v -1.2 1.13 0.44
v 1.2 1.13 0.44
v 1.2 1.21 0.44
v -1.2 1.21 0.44
v -0.77 0.7 -0.43
v -0.43 0.94 -0.43
v -0.43 0.7 -0.43
v -0.77 0.94 -0.43
v -0.77 0.7 -0.42
v -0.43 0.7 -0.42
v -0.43 0.94 -0.42
v -0.77 0.94 -0.42
v -0.77 0.7 0.42
v -0.43 0.94 0.42
v -0.43 0.7 0.42
v -0.77 0.94 0.42
v -0.77 0.7 0.43
v -0.43 0.7 0.43
v -0.43 0.94 0.43
v -0.77 0.94 0.43
v -0.17 0.7 -0.43
v 0.17 0.94 -0.43
v 0.17 0.7 -0.43
v -0.17 0.94 -0.43
v -0.17 0.7 -0.42
v 0.17 0.7 -0.42
v 0.17 0.94 -0.42
v -0.17 0.94 -0.42
v -0.17 0.7 0.42
v 0.17 0.94 0.42
v 0.17 0.7 0.42
v -0.17 0.94 0.42
v -0.17 0.7 0.43
v 0.17 0.7 0.43
v 0.17 0.94 0.43
v -0.17 0.94 0.43
v 0.43 0.7 -0.43
v 0.77 0.94 -0.43
v 0.77 0.7 -0.43
v 0.43 0.94 -0.43
v 0.43 0.7 -0.42
v 0.77 0.7 -0.42
v 0.77 0.94 -0.42
v 0.43 0.94 -0.42
v 0.43 0.7 0.42
v 0.77 0.94 0.42
v 0.77 0.7 0.42
v 0.43 0.94 0.42
v 0.43 0.7 0.43
v 0.77 0.7 0.43
v 0.77 0.94 0.43
v 0.43 0.94 0.43
v -1.15 0.03 -0.35
v 1.15 0.25 -0.35
v 1.15 0.03 -0.35
v -1.15 0.25 -0.35
v -1.15 0.03 0.35
v 1.15 0.03 0.35
v 1.15 0.25 0.35
v -1.15 0.25 0.35
vn 0 0 -1
vn 0 0 1
vn 0 -1 0
vn 0 1 0
vn -1 0 0
vn 1 0 0
usemtl wagon
f 1//1 2//1 3//1
f 1//1 4//1 2//1
f 5//2 6//2 7//2
f 5//2 7//2 8//2
f 1//3 3//3 6//3
f 1//3 6//3 5//3
f 4//4 8//4 7//4
f 4//4 7//4 2//4
f 1//5 5//5 8//5
f 1//5 8//5 4//5
f 3//6 2//6 7//6
f 3//6 7//6 6//6
usemtl wagon_roof
f 9//1 10//1 11//1
f 9//1 12//1 10//1
f 13//2 14//2 15//2
f 13//2 15//2 16//2
f 9//3 11//3 14//3
f 9//3 14//3 13//3
f 12//4 16//4 15//4
f 12//4 15//4 10//4
f 9//5 13//5 16//5
f 9//5 16//5 12//5
f 11//6 10//6 15//6
f 11//6 15//6 14//6
usemtl glass
f 17//1 18//1 19//1
f 17//1 20//1 18//1
f 21//2 22//2 23//2
f 21//2 23//2 24//2
f 17//3 19//3 22//3
f 17//3 22//3 21//3
f 20//4 24//4 23//4
f 20//4 23//4 18//4
f 17//5 21//5 24//5
f 17//5 24//5 20//5
f 19//6 18//6 23//6
f 19//6 23//6 22//6
f 25//1 26//1 27//1
f 25//1 28//1 26//1
f 29//2 30//2 31//2
f 29//2 31//2 32//2
f 25//3 27//3 30//3
f 25//3 30//3 29//3
f 28//4 32//4 31//4
f 28//4 31//4 26//4
f 25//5 29//5 32//5
f 25//5 32//5 28//5
f 27//6 26//6 31//6
f 27//6 31//6 30//6
f 33//1 34//1 35//1
f 33//1 36//1 34//1
f 37//2 38//2 39//2
f 37//2 39//2 40//2
f 33//3 35//3 38//3
f 33//3 38//3 37//3
f 36//4 40//4 39//4
f 36//4 39//4 34//4
f 33//5 37//5 40//5
f 33//5 40//5 36//5
f 35//6 34//6 39//6
f 35//6 39//6 38//6
f 41//1 42//1 43//1
f 41//1 44//1 42//1
f 45//2 46//2 47//2
f 45//2 47//2 48//2
f 41//3 43//3 46//3
f 41//3 46//3 45//3
f 44//4 48//4 47//4
f 44//4 47//4 42//4
f 41//5 45//5 48//5
f 41//5 48//5 44//5
f 43//6 42//6 47//6
f 43//6 47//6 46//6
f 49//1 50//1 51//1
f 49//1 52//1 50//1
f 53//2 54//2 55//2
f 53//2 55//2 56//2
f 49//3 51//3 54//3
f 49//3 54//3 53//3
f 52//4 56//4 55//4
f 52//4 55//4 50//4
f 49//5 53//5 56//5
f 49//5 56//5 52//5
f 51//6 50//6 55//6
f 51//6 55//6 54//6
f 57//1 58//1 59//1
f 57//1 60//1 58//1
f 61//2 62//2 63//2
f 61//2 63//2 64//2
f 57//3 59//3 62//3
f 57//3 62//3 61//3
f 60//4 64//4 63//4
f 60//4 63//4 58//4
f 57//5 61//5 64//5
f 57//5 64//5 60//5
f 59//6 58//6 63//6
f 59//6 63//6 62//6
usemtl chassis
f 65//1 66//1 67//1
f 65//1 68//1 66//1
f 69//2 70//2 71//2
f 69//2 71//2 72//2
f 65//3 67//3 70//3
f 65//3 70//3 69//3
f 68//4 72//4 71//4
f 68//4 71//4 66//4
f 65//5 69//5 72//5
f 65//5 72//5 68//5
f 67//6 66//6 71//6
f 67//6 71//6 70//6
