# Generated for AthenaENV Model3D.load
mtllib water.mtl
v -4.5 -0.12 -0.5
v -4.5 -0.12 0.5
v 4.5 -0.12 0.5
v 4.5 -0.12 -0.5
v -16 -0.12 -0.5
v -16 -0.12 0.5
v 16 -0.12 0.5
v 16 -0.12 -0.5
v -7.7174809 -0.105 -0.0102898
v -7.7174809 -0.105 0.2397102
v -7.4674809 -0.105 0.2397102
v -7.4674809 -0.105 -0.0102898
v -6.761476 -0.105 -0.19207642
v -6.761476 -0.105 -0.012076423
v -6.261476 -0.105 -0.012076423
v -6.261476 -0.105 -0.19207642
v -6.6993954 -0.105 -0.4415033
v -6.6993954 -0.105 -0.2615033
v -6.1993954 -0.105 -0.2615033
v -6.1993954 -0.105 -0.4415033
v -8.1896764 -0.105 -0.40105811
v -8.1896764 -0.105 -0.22105811
v -7.9396764 -0.105 -0.22105811
v -7.9396764 -0.105 -0.40105811
v -8.2754325 -0.105 0.25006177
v -8.2754325 -0.105 0.43006177
v -7.7754325 -0.105 0.43006177
v -7.7754325 -0.105 0.25006177
v -9.1616914 -0.105 -0.031401759
v -9.1616914 -0.105 0.14859824
v -8.6616914 -0.105 0.14859824
v -8.6616914 -0.105 -0.031401759
v -8.030726 -0.105 -0.046934678
v -8.030726 -0.105 0.13306532
v -7.780726 -0.105 0.13306532
v -7.780726 -0.105 -0.046934678
v 6.5976517 -0.105 -0.059078727
v 6.5976517 -0.105 0.12092127
v 6.9476517 -0.105 0.12092127
v 6.9476517 -0.105 -0.059078727
v 8.4049289 -0.105 -0.39264795
v 8.4049289 -0.105 -0.092647951
v 8.9049289 -0.105 -0.092647951
v 8.9049289 -0.105 -0.39264795
v 8.4508807 -0.105 -0.18697787
v 8.4508807 -0.105 -0.0069778675
v 8.9508807 -0.105 -0.0069778675
v 8.9508807 -0.105 -0.18697787
v 8.4303012 -0.105 -0.48470311
v 8.4303012 -0.105 -0.18470311
v 8.6803012 -0.105 -0.18470311
v 8.6803012 -0.105 -0.48470311
v 6.8356225 -0.105 -0.20502985
v 6.8356225 -0.105 0.094970152
v 7.3356225 -0.105 0.094970152
v 7.3356225 -0.105 -0.20502985
v 7.3008328 -0.105 -0.23019741
v 7.3008328 -0.105 0.019802591
v 7.8008328 -0.105 0.019802591
v 7.8008328 -0.105 -0.23019741
v 7.1432343 -0.105 0.062670519
v 7.1432343 -0.105 0.36267052
v 7.3932343 -0.105 0.36267052
v 7.3932343 -0.105 0.062670519
vn 0 1 0
usemtl water
f 1//1 2//1 3//1
f 1//1 3//1 4//1
usemtl water_out
f 5//1 6//1 2//1
f 5//1 2//1 1//1
f 4//1 3//1 7//1
f 4//1 7//1 8//1
usemtl foam
f 9//1 10//1 11//1
f 9//1 11//1 12//1
f 13//1 14//1 15//1
f 13//1 15//1 16//1
f 17//1 18//1 19//1
f 17//1 19//1 20//1
f 21//1 22//1 23//1
f 21//1 23//1 24//1
f 25//1 26//1 27//1
f 25//1 27//1 28//1
f 29//1 30//1 31//1
f 29//1 31//1 32//1
f 33//1 34//1 35//1
f 33//1 35//1 36//1
f 37//1 38//1 39//1
f 37//1 39//1 40//1
f 41//1 42//1 43//1
f 41//1 43//1 44//1
f 45//1 46//1 47//1
f 45//1 47//1 48//1
f 49//1 50//1 51//1
f 49//1 51//1 52//1
f 53//1 54//1 55//1
f 53//1 55//1 56//1
f 57//1 58//1 59//1
f 57//1 59//1 60//1
f 61//1 62//1 63//1
f 61//1 63//1 64//1
